<svg width="360" height="640" viewBox="0 0 360 640" fill="none" xmlns="http://www.w3.org/2000/svg">
<path d="M298.906 640H58.9888C44.6052 639.985 30.8154 634.87 20.6447 625.776C10.474 616.682 4.75304 604.353 4.73682 591.492V48.5078C4.75304 35.6472 10.474 23.3175 20.6447 14.2237C30.8154 5.12989 44.6052 0.0145703 58.9888 0H298.906C313.29 0.0145678 327.079 5.12988 337.25 14.2237C347.421 23.3175 353.142 35.6472 353.158 48.5078V591.492C353.142 604.353 347.421 616.682 337.25 625.776C327.079 634.87 313.29 639.985 298.906 640Z" fill="#3F3D56"/>
<path d="M296.221 15.0591H269.516C267.132 15.0612 264.847 15.9087 263.162 17.4156C261.477 18.9225 260.529 20.9656 260.526 23.0967C260.522 27.4537 258.584 31.6311 255.138 34.712C251.692 37.7929 247.02 39.5255 242.147 39.5297H111.537C106.664 39.5255 101.992 37.7929 98.546 34.712C95.1003 31.6311 93.1624 27.4537 93.1578 23.0967C93.1555 20.9656 92.2076 18.9225 90.5222 17.4156C88.8369 15.9087 86.5518 15.0612 84.1684 15.0591H60.6209C49.7122 15.0715 39.2543 18.9517 31.5407 25.8485C23.8271 32.7454 19.4875 42.096 19.4736 51.8497V590.974C19.4875 600.728 23.8271 610.079 31.5407 616.975C39.2543 623.872 49.7122 627.752 60.6209 627.765H296.221C307.13 627.752 317.588 623.872 325.301 616.975C333.015 610.079 337.355 600.728 337.368 590.974V51.8497C337.355 42.096 333.015 32.7454 325.301 25.8485C317.588 18.9517 307.13 15.0715 296.221 15.0591Z" fill="white"/>
<path d="M209.737 25.8822H136.053C135.355 25.8822 134.685 25.6342 134.192 25.193C133.698 24.7517 133.421 24.1532 133.421 23.5292C133.421 22.9052 133.698 22.3067 134.192 21.8654C134.685 21.4242 135.355 21.1763 136.053 21.1763H209.737C210.435 21.1763 211.104 21.4242 211.598 21.8654C212.091 22.3067 212.369 22.9052 212.369 23.5292C212.369 24.1532 212.091 24.7517 211.598 25.193C211.104 25.6342 210.435 25.8822 209.737 25.8822Z" fill="white"/>
<path d="M221.316 25.4119C222.478 25.4119 223.421 24.5692 223.421 23.5296C223.421 22.49 222.478 21.6472 221.316 21.6472C220.153 21.6472 219.21 22.49 219.21 23.5296C219.21 24.5692 220.153 25.4119 221.316 25.4119Z" fill="white"/>
<path d="M355.263 214.118C354.007 214.116 352.803 213.67 351.915 212.876C351.027 212.082 350.528 211.005 350.526 209.882V127.059C350.526 125.936 351.025 124.858 351.914 124.064C352.802 123.27 354.007 122.823 355.263 122.823C356.519 122.823 357.724 123.27 358.613 124.064C359.501 124.858 360 125.936 360 127.059V209.882C359.999 211.005 359.499 212.082 358.611 212.876C357.723 213.67 356.519 214.116 355.263 214.118Z" fill="#3F3D56"/>
<path d="M4.73684 152.941C3.48098 152.94 2.27696 152.493 1.38894 151.699C0.500907 150.905 0.00139308 149.829 0 148.706V129.883C0 128.759 0.499063 127.682 1.38739 126.888C2.27572 126.093 3.48055 125.647 4.73684 125.647C5.99313 125.647 7.19796 126.093 8.08629 126.888C8.97462 127.682 9.47368 128.759 9.47368 129.883V148.706C9.47229 149.829 8.97281 150.905 8.08478 151.699C7.19675 152.493 5.9927 152.94 4.73684 152.941Z" fill="#3F3D56"/>
<path d="M4.73684 187.765C3.48098 187.764 2.27696 187.317 1.38894 186.523C0.500907 185.729 0.00139308 184.652 0 183.53V164.706C0 163.583 0.499063 162.505 1.38739 161.711C2.27572 160.917 3.48055 160.471 4.73684 160.471C5.99313 160.471 7.19796 160.917 8.08629 161.711C8.97462 162.505 9.47368 163.583 9.47368 164.706V183.53C9.47229 184.652 8.97281 185.729 8.08478 186.523C7.19675 187.317 5.9927 187.764 4.73684 187.765Z" fill="#3F3D56"/>
</svg>
