<svg width="800" height="436" viewBox="0 0 800 436" fill="none" xmlns="http://www.w3.org/2000/svg">
<path opacity="0.1" d="M799.999 277.056C800.009 288.783 798.397 300.455 795.209 311.741C792.128 322.621 787.596 333.036 781.734 342.706C781.734 377.741 758.083 408.021 723.755 422.426C709.41 428.385 694.022 431.428 678.489 431.377H151.867C123.72 431.377 97.6366 423.783 76.245 410.846C70.1229 407.16 64.3153 402.976 58.8814 398.335C35.1052 377.902 20.3639 349.664 20.3639 318.475C7.02 297.928 -0.0555772 273.941 0.00032875 249.44C0.00032875 198.14 30.343 154.028 73.8114 134.552C79.5836 131.967 85.5479 129.835 91.6506 128.175C93.8091 127.587 95.9909 127.06 98.196 126.594C104.074 125.342 110.037 124.524 116.035 124.147C118.203 124.012 120.382 123.935 122.574 123.916H123.776C126.196 123.916 128.595 124 130.979 124.14L131.762 122.811C132.723 121.207 133.706 119.62 134.713 118.049C136.532 115.186 138.438 112.366 140.434 109.587C142.522 106.655 144.702 103.769 146.972 100.93L147.553 100.231C148.839 98.6269 150.154 97.0419 151.497 95.4754C155.692 90.585 160.121 85.8414 164.783 81.2447C215.21 31.8181 294.21 0 383.021 0C452.126 0 515.293 19.2657 563.678 51.0978C582.008 40.7248 602.714 35.282 623.776 35.3007C692.125 35.3007 747.552 91.5034 747.552 160.832C747.542 165.219 747.308 169.602 746.853 173.965C763.328 185.628 776.758 201.082 786.007 219.024C795.257 236.966 800.056 256.87 799.999 277.056Z" fill="#118AB2"/>
<path opacity="0.2" d="M159.902 85.4404V99.6712H146.615C150.778 94.7854 155.207 90.0418 159.902 85.4404Z" fill="#06D6A0"/>
<path opacity="0.2" d="M184.287 81.832H166.447V99.6712H184.287V81.832Z" fill="#06D6A0"/>
<path opacity="0.2" d="M208.664 81.832H190.825V99.6712H208.664V81.832Z" fill="#06D6A0"/>
<path opacity="0.2" d="M233.049 81.832H215.21V99.6712H233.049V81.832Z" fill="#06D6A0"/>
<path opacity="0.2" d="M257.426 81.832H239.587V99.6712H257.426V81.832Z" fill="#06D6A0"/>
<path opacity="0.2" d="M281.811 81.832H263.972V99.6712H281.811V81.832Z" fill="#06D6A0"/>
<path d="M306.195 81.832H288.356V99.6712H306.195V81.832Z" fill="#06D6A0"/>
<path opacity="0.2" d="M330.573 81.832H312.734V99.6712H330.573V81.832Z" fill="#06D6A0"/>
<path opacity="0.2" d="M354.958 81.832H337.118V99.6712H354.958V81.832Z" fill="#06D6A0"/>
<path opacity="0.2" d="M379.335 81.832H361.496V99.6712H379.335V81.832Z" fill="#06D6A0"/>
<path d="M403.72 81.832H385.881V99.6712H403.72V81.832Z" fill="#06D6A0"/>
<path opacity="0.2" d="M428.104 81.832H410.265V99.6712H428.104V81.832Z" fill="#06D6A0"/>
<path opacity="0.2" d="M452.482 81.832H434.643V99.6712H452.482V81.832Z" fill="#06D6A0"/>
<path opacity="0.2" d="M476.867 81.832H459.027V99.6712H476.867V81.832Z" fill="#06D6A0"/>
<path opacity="0.2" d="M501.251 81.832H483.412V99.6712H501.251V81.832Z" fill="#06D6A0"/>
<path opacity="0.2" d="M525.629 81.832H507.79V99.6712H525.629V81.832Z" fill="#06D6A0"/>
<path opacity="0.2" d="M550.013 81.832H532.174V99.6712H550.013V81.832Z" fill="#06D6A0"/>
<path d="M574.391 81.832H556.552V99.6712H574.391V81.832Z" fill="#06D6A0"/>
<path d="M598.776 81.832H580.936V99.6712H598.776V81.832Z" fill="#06D6A0"/>
<path opacity="0.2" d="M623.16 81.832H605.321V99.6712H623.16V81.832Z" fill="#06D6A0"/>
<path opacity="0.2" d="M647.538 81.832H629.699V99.6712H647.538V81.832Z" fill="#06D6A0"/>
<path d="M671.922 81.832H654.083V99.6712H671.922V81.832Z" fill="#06D6A0"/>
<path d="M696.3 81.832H678.461V99.6712H696.3V81.832Z" fill="#06D6A0"/>
<path d="M135.524 113.804V122.266H129.804C131.622 119.385 133.529 116.564 135.524 113.804Z" fill="#06D6A0"/>
<path opacity="0.2" d="M159.902 104.427H142.063V122.266H159.902V104.427Z" fill="#06D6A0"/>
<path d="M184.287 104.427H166.447V122.266H184.287V104.427Z" fill="#06D6A0"/>
<path opacity="0.2" d="M208.664 104.427H190.825V122.266H208.664V104.427Z" fill="#06D6A0"/>
<path opacity="0.7" d="M233.049 104.427H215.21V122.266H233.049V104.427Z" fill="#06D6A0"/>
<path opacity="0.2" d="M257.426 104.427H239.587V122.266H257.426V104.427Z" fill="#06D6A0"/>
<path opacity="0.4" d="M281.811 104.427H263.972V122.266H281.811V104.427Z" fill="#06D6A0"/>
<path d="M306.195 104.427H288.356V122.266H306.195V104.427Z" fill="#06D6A0"/>
<path opacity="0.4" d="M330.573 104.427H312.734V122.266H330.573V104.427Z" fill="#06D6A0"/>
<path opacity="0.2" d="M354.958 104.427H337.118V122.266H354.958V104.427Z" fill="#06D6A0"/>
<path opacity="0.4" d="M379.335 104.427H361.496V122.266H379.335V104.427Z" fill="#06D6A0"/>
<path d="M403.72 104.427H385.881V122.266H403.72V104.427Z" fill="#06D6A0"/>
<path opacity="0.4" d="M428.104 104.427H410.265V122.266H428.104V104.427Z" fill="#06D6A0"/>
<path opacity="0.4" d="M452.482 104.427H434.643V122.266H452.482V104.427Z" fill="#06D6A0"/>
<path opacity="0.2" d="M476.867 104.427H459.027V122.266H476.867V104.427Z" fill="#06D6A0"/>
<path opacity="0.4" d="M501.251 104.427H483.412V122.266H501.251V104.427Z" fill="#06D6A0"/>
<path opacity="0.4" d="M525.629 104.427H507.79V122.266H525.629V104.427Z" fill="#06D6A0"/>
<path opacity="0.2" d="M550.013 104.427H532.174V122.266H550.013V104.427Z" fill="#06D6A0"/>
<path opacity="0.2" d="M574.391 104.427H556.552V122.266H574.391V104.427Z" fill="#06D6A0"/>
<path opacity="0.4" d="M598.776 104.427H580.936V122.266H598.776V104.427Z" fill="#06D6A0"/>
<path opacity="0.2" d="M623.16 104.427H605.321V122.266H623.16V104.427Z" fill="#06D6A0"/>
<path d="M647.538 104.427H629.699V122.266H647.538V104.427Z" fill="#06D6A0"/>
<path d="M671.922 104.427H654.083V122.266H671.922V104.427Z" fill="#06D6A0"/>
<path d="M696.3 104.427H678.461V122.266H696.3V104.427Z" fill="#06D6A0"/>
<path opacity="0.2" d="M86.7552 132.398V144.867H68.916V138.776C74.6882 136.191 80.6525 134.059 86.7552 132.398Z" fill="#06D6A0"/>
<path opacity="0.2" d="M111.14 128.371V144.867H93.3005V130.818L111.14 128.371Z" fill="#06D6A0"/>
<path d="M135.517 127.028H117.678V144.867H135.517V127.028Z" fill="#06D6A0"/>
<path opacity="0.7" d="M159.902 127.028H142.063V144.867H159.902V127.028Z" fill="#06D6A0"/>
<path d="M184.287 127.028H166.447V144.867H184.287V127.028Z" fill="#06D6A0"/>
<path opacity="0.7" d="M208.664 127.028H190.825V144.867H208.664V127.028Z" fill="#06D6A0"/>
<path opacity="0.7" d="M233.049 127.028H215.21V144.867H233.049V127.028Z" fill="#06D6A0"/>
<path opacity="0.2" d="M257.426 127.028H239.587V144.867H257.426V127.028Z" fill="#06D6A0"/>
<path opacity="0.4" d="M281.811 127.028H263.972V144.867H281.811V127.028Z" fill="#06D6A0"/>
<path opacity="0.4" d="M306.195 127.028H288.356V144.867H306.195V127.028Z" fill="#06D6A0"/>
<path d="M330.573 127.028H312.734V144.867H330.573V127.028Z" fill="#06D6A0"/>
<path opacity="0.2" d="M354.958 127.028H337.118V144.867H354.958V127.028Z" fill="#06D6A0"/>
<path opacity="0.4" d="M379.335 127.028H361.496V144.867H379.335V127.028Z" fill="#06D6A0"/>
<path d="M403.72 127.028H385.881V144.867H403.72V127.028Z" fill="#06D6A0"/>
<path opacity="0.2" d="M428.104 127.028H410.265V144.867H428.104V127.028Z" fill="#06D6A0"/>
<path opacity="0.4" d="M452.482 127.028H434.643V144.867H452.482V127.028Z" fill="#06D6A0"/>
<path opacity="0.2" d="M476.867 127.028H459.027V144.867H476.867V127.028Z" fill="#06D6A0"/>
<path d="M501.251 127.028H483.412V144.867H501.251V127.028Z" fill="#06D6A0"/>
<path opacity="0.2" d="M525.629 127.028H507.79V144.867H525.629V127.028Z" fill="#06D6A0"/>
<path opacity="0.7" d="M550.013 127.028H532.174V144.867H550.013V127.028Z" fill="#06D6A0"/>
<path opacity="0.7" d="M574.391 127.028H556.552V144.867H574.391V127.028Z" fill="#06D6A0"/>
<path opacity="0.4" d="M598.776 127.028H580.936V144.867H598.776V127.028Z" fill="#06D6A0"/>
<path opacity="0.2" d="M623.16 127.028H605.321V144.867H623.16V127.028Z" fill="#06D6A0"/>
<path d="M647.538 127.028H629.699V144.867H647.538V127.028Z" fill="#06D6A0"/>
<path d="M671.922 127.028H654.083V144.867H671.922V127.028Z" fill="#06D6A0"/>
<path d="M696.3 127.028H678.461V144.867H696.3V127.028Z" fill="#06D6A0"/>
<path opacity="0.2" d="M86.7552 149.622H68.916V167.461H86.7552V149.622Z" fill="#06D6A0"/>
<path opacity="0.2" d="M111.14 149.622H93.3005V167.461H111.14V149.622Z" fill="#06D6A0"/>
<path opacity="0.2" d="M135.517 149.622H117.678V167.461H135.517V149.622Z" fill="#06D6A0"/>
<path opacity="0.2" d="M159.902 149.622H142.063V167.461H159.902V149.622Z" fill="#06D6A0"/>
<path d="M184.287 149.622H166.447V167.461H184.287V149.622Z" fill="#06D6A0"/>
<path opacity="0.7" d="M208.664 149.622H190.825V167.461H208.664V149.622Z" fill="#06D6A0"/>
<path opacity="0.7" d="M233.049 149.622H215.21V167.461H233.049V149.622Z" fill="#06D6A0"/>
<path opacity="0.2" d="M257.426 149.622H239.587V167.461H257.426V149.622Z" fill="#06D6A0"/>
<path opacity="0.2" d="M281.811 149.622H263.972V167.461H281.811V149.622Z" fill="#06D6A0"/>
<path opacity="0.4" d="M306.195 149.622H288.356V167.461H306.195V149.622Z" fill="#06D6A0"/>
<path opacity="0.4" d="M330.573 149.622H312.734V167.461H330.573V149.622Z" fill="#06D6A0"/>
<path d="M354.958 149.622H337.118V167.461H354.958V149.622Z" fill="#06D6A0"/>
<path opacity="0.2" d="M379.335 149.622H361.496V167.461H379.335V149.622Z" fill="#06D6A0"/>
<path opacity="0.4" d="M403.72 149.622H385.881V167.461H403.72V149.622Z" fill="#06D6A0"/>
<path opacity="0.4" d="M428.104 149.622H410.265V167.461H428.104V149.622Z" fill="#06D6A0"/>
<path opacity="0.4" d="M452.482 149.622H434.643V167.461H452.482V149.622Z" fill="#06D6A0"/>
<path opacity="0.4" d="M476.867 149.622H459.027V167.461H476.867V149.622Z" fill="#06D6A0"/>
<path opacity="0.2" d="M501.251 149.622H483.412V167.461H501.251V149.622Z" fill="#06D6A0"/>
<path opacity="0.2" d="M525.629 149.622H507.79V167.461H525.629V149.622Z" fill="#06D6A0"/>
<path opacity="0.2" d="M550.013 149.622H532.174V167.461H550.013V149.622Z" fill="#06D6A0"/>
<path opacity="0.2" d="M574.391 149.622H556.552V167.461H574.391V149.622Z" fill="#06D6A0"/>
<path opacity="0.7" d="M598.776 149.622H580.936V167.461H598.776V149.622Z" fill="#06D6A0"/>
<path opacity="0.7" d="M623.16 149.622H605.321V167.461H623.16V149.622Z" fill="#06D6A0"/>
<path opacity="0.4" d="M647.538 149.622H629.699V167.461H647.538V149.622Z" fill="#06D6A0"/>
<path opacity="0.2" d="M671.922 149.622H654.083V167.461H671.922V149.622Z" fill="#06D6A0"/>
<path d="M696.3 149.622H678.461V167.461H696.3V149.622Z" fill="#06D6A0"/>
<path opacity="0.2" d="M86.7552 172.224H68.916V190.063H86.7552V172.224Z" fill="#06D6A0"/>
<path opacity="0.2" d="M111.14 172.224H93.3005V190.063H111.14V172.224Z" fill="#06D6A0"/>
<path opacity="0.4" d="M135.517 172.224H117.678V190.063H135.517V172.224Z" fill="#06D6A0"/>
<path opacity="0.2" d="M159.902 172.224H142.063V190.063H159.902V172.224Z" fill="#06D6A0"/>
<path opacity="0.2" d="M184.287 172.224H166.447V190.063H184.287V172.224Z" fill="#06D6A0"/>
<path opacity="0.7" d="M208.664 172.224H190.825V190.063H208.664V172.224Z" fill="#06D6A0"/>
<path opacity="0.7" d="M233.049 172.224H215.21V190.063H233.049V172.224Z" fill="#06D6A0"/>
<path opacity="0.2" d="M257.426 172.224H239.587V190.063H257.426V172.224Z" fill="#06D6A0"/>
<path opacity="0.2" d="M281.811 172.224H263.972V190.063H281.811V172.224Z" fill="#06D6A0"/>
<path opacity="0.4" d="M306.195 172.224H288.356V190.063H306.195V172.224Z" fill="#06D6A0"/>
<path d="M330.573 172.224H312.734V190.063H330.573V172.224Z" fill="#06D6A0"/>
<path opacity="0.2" d="M354.958 172.224H337.118V190.063H354.958V172.224Z" fill="#06D6A0"/>
<path d="M379.335 172.224H361.496V190.063H379.335V172.224Z" fill="#06D6A0"/>
<path d="M403.72 172.224H385.881V190.063H403.72V172.224Z" fill="#06D6A0"/>
<path d="M428.104 172.224H410.265V190.063H428.104V172.224Z" fill="#06D6A0"/>
<path opacity="0.2" d="M452.482 172.224H434.643V190.063H452.482V172.224Z" fill="#06D6A0"/>
<path d="M476.867 172.224H459.027V190.063H476.867V172.224Z" fill="#06D6A0"/>
<path opacity="0.2" d="M501.251 172.224H483.412V190.063H501.251V172.224Z" fill="#06D6A0"/>
<path opacity="0.2" d="M525.629 172.224H507.79V190.063H525.629V172.224Z" fill="#06D6A0"/>
<path opacity="0.2" d="M550.013 172.224H532.174V190.063H550.013V172.224Z" fill="#06D6A0"/>
<path opacity="0.2" d="M574.391 172.224H556.552V190.063H574.391V172.224Z" fill="#06D6A0"/>
<path opacity="0.2" d="M598.776 172.224H580.936V190.063H598.776V172.224Z" fill="#06D6A0"/>
<path opacity="0.7" d="M623.16 172.224H605.321V190.063H623.16V172.224Z" fill="#06D6A0"/>
<path opacity="0.2" d="M647.538 172.224H629.699V190.063H647.538V172.224Z" fill="#06D6A0"/>
<path opacity="0.2" d="M671.922 172.224H654.083V190.063H671.922V172.224Z" fill="#06D6A0"/>
<path d="M696.3 172.224H678.461V190.063H696.3V172.224Z" fill="#06D6A0"/>
<path opacity="0.2" d="M86.7552 194.818H68.916V212.657H86.7552V194.818Z" fill="#06D6A0"/>
<path opacity="0.2" d="M111.14 194.818H93.3005V212.657H111.14V194.818Z" fill="#06D6A0"/>
<path opacity="0.2" d="M135.517 194.818H117.678V212.657H135.517V194.818Z" fill="#06D6A0"/>
<path opacity="0.4" d="M159.902 194.818H142.063V212.657H159.902V194.818Z" fill="#06D6A0"/>
<path opacity="0.2" d="M184.287 194.818H166.447V212.657H184.287V194.818Z" fill="#06D6A0"/>
<path opacity="0.2" d="M208.664 194.818H190.825V212.657H208.664V194.818Z" fill="#06D6A0"/>
<path opacity="0.7" d="M233.049 194.818H215.21V212.657H233.049V194.818Z" fill="#06D6A0"/>
<path opacity="0.2" d="M257.426 194.818H239.587V212.657H257.426V194.818Z" fill="#06D6A0"/>
<path opacity="0.2" d="M281.811 194.818H263.972V212.657H281.811V194.818Z" fill="#06D6A0"/>
<path opacity="0.2" d="M306.195 194.818H288.356V212.657H306.195V194.818Z" fill="#06D6A0"/>
<path d="M330.573 194.818H312.734V212.657H330.573V194.818Z" fill="#06D6A0"/>
<path opacity="0.2" d="M354.958 194.818H337.118V212.657H354.958V194.818Z" fill="#06D6A0"/>
<path d="M379.335 194.818H361.496V212.657H379.335V194.818Z" fill="#06D6A0"/>
<path d="M403.72 194.818H385.881V212.657H403.72V194.818Z" fill="#06D6A0"/>
<path opacity="0.2" d="M428.104 194.818H410.265V212.657H428.104V194.818Z" fill="#06D6A0"/>
<path opacity="0.2" d="M452.482 194.818H434.643V212.657H452.482V194.818Z" fill="#06D6A0"/>
<path opacity="0.2" d="M476.867 194.818H459.027V212.657H476.867V194.818Z" fill="#06D6A0"/>
<path opacity="0.2" d="M501.251 194.818H483.412V212.657H501.251V194.818Z" fill="#06D6A0"/>
<path opacity="0.2" d="M525.629 194.818H507.79V212.657H525.629V194.818Z" fill="#06D6A0"/>
<path opacity="0.2" d="M550.013 194.818H532.174V212.657H550.013V194.818Z" fill="#06D6A0"/>
<path opacity="0.2" d="M574.391 194.818H556.552V212.657H574.391V194.818Z" fill="#06D6A0"/>
<path opacity="0.2" d="M598.776 194.818H580.936V212.657H598.776V194.818Z" fill="#06D6A0"/>
<path opacity="0.2" d="M623.16 194.818H605.321V212.657H623.16V194.818Z" fill="#06D6A0"/>
<path opacity="0.2" d="M647.538 194.818H629.699V212.657H647.538V194.818Z" fill="#06D6A0"/>
<path opacity="0.4" d="M671.922 194.818H654.083V212.657H671.922V194.818Z" fill="#06D6A0"/>
<path d="M696.3 194.818H678.461V212.657H696.3V194.818Z" fill="#06D6A0"/>
<path opacity="0.7" d="M86.7552 217.419H68.916V235.259H86.7552V217.419Z" fill="#06D6A0"/>
<path opacity="0.7" d="M111.14 217.419H93.3005V235.259H111.14V217.419Z" fill="#06D6A0"/>
<path opacity="0.7" d="M135.517 217.419H117.678V235.259H135.517V217.419Z" fill="#06D6A0"/>
<path opacity="0.7" d="M159.902 217.419H142.063V235.259H159.902V217.419Z" fill="#06D6A0"/>
<path opacity="0.7" d="M184.287 217.419H166.447V235.259H184.287V217.419Z" fill="#06D6A0"/>
<path opacity="0.2" d="M208.664 217.419H190.825V235.259H208.664V217.419Z" fill="#06D6A0"/>
<path opacity="0.2" d="M233.049 217.419H215.21V235.259H233.049V217.419Z" fill="#06D6A0"/>
<path opacity="0.2" d="M257.426 217.419H239.587V235.259H257.426V217.419Z" fill="#06D6A0"/>
<path opacity="0.2" d="M281.811 217.419H263.972V235.259H281.811V217.419Z" fill="#06D6A0"/>
<path opacity="0.2" d="M306.195 217.419H288.356V235.259H306.195V217.419Z" fill="#06D6A0"/>
<path opacity="0.2" d="M330.573 217.419H312.734V235.259H330.573V217.419Z" fill="#06D6A0"/>
<path d="M354.958 217.419H337.118V235.259H354.958V217.419Z" fill="#06D6A0"/>
<path opacity="0.2" d="M379.335 217.419H361.496V235.259H379.335V217.419Z" fill="#06D6A0"/>
<path opacity="0.2" d="M403.72 217.419H385.881V235.259H403.72V217.419Z" fill="#06D6A0"/>
<path opacity="0.2" d="M428.104 217.419H410.265V235.259H428.104V217.419Z" fill="#06D6A0"/>
<path d="M452.482 217.419H434.643V235.259H452.482V217.419Z" fill="#06D6A0"/>
<path opacity="0.2" d="M476.867 217.419H459.027V235.259H476.867V217.419Z" fill="#06D6A0"/>
<path opacity="0.2" d="M501.251 217.419H483.412V235.259H501.251V217.419Z" fill="#06D6A0"/>
<path opacity="0.2" d="M525.629 217.419H507.79V235.259H525.629V217.419Z" fill="#06D6A0"/>
<path opacity="0.2" d="M550.013 217.419H532.174V235.259H550.013V217.419Z" fill="#06D6A0"/>
<path opacity="0.2" d="M574.391 217.419H556.552V235.259H574.391V217.419Z" fill="#06D6A0"/>
<path opacity="0.2" d="M598.776 217.419H580.936V235.259H598.776V217.419Z" fill="#06D6A0"/>
<path opacity="0.2" d="M623.16 217.419H605.321V235.259H623.16V217.419Z" fill="#06D6A0"/>
<path opacity="0.2" d="M647.538 217.419H629.699V235.259H647.538V217.419Z" fill="#06D6A0"/>
<path opacity="0.2" d="M671.922 217.419H654.083V235.259H671.922V217.419Z" fill="#06D6A0"/>
<path d="M696.3 217.419H678.461V235.259H696.3V217.419Z" fill="#06D6A0"/>
<path d="M508.755 283.048C522.222 283.048 533.139 272.131 533.139 258.664C533.139 245.197 522.222 234.279 508.755 234.279C495.287 234.279 484.37 245.197 484.37 258.664C484.37 272.131 495.287 283.048 508.755 283.048Z" fill="#767D9F"/>
<path d="M507.489 227.643C509.923 238.263 511.988 248.962 513.685 259.741C514.195 262.944 514.65 266.321 513.489 269.349C512.517 271.874 510.538 273.846 508.985 276.055C507.433 278.265 506.258 281.097 507.202 283.629C508.146 286.16 510.902 287.545 513.531 288.258C521.055 290.286 529.076 288.811 536.566 286.615C539.957 285.742 543.208 284.395 546.223 282.615C549.398 280.601 551.999 277.804 554.391 274.923C565.307 261.685 572.454 245.797 579.181 230.007C574.859 230.4 570.504 229.759 566.478 228.137C562.452 226.515 558.87 223.958 556.027 220.678C553.272 217.44 551.251 212.93 552.804 208.972C548.251 211.468 542.846 211.636 537.943 213.342C534.903 214.503 531.977 215.943 529.202 217.643C525.855 219.578 522.526 221.55 519.216 223.559C515.433 225.839 511.888 227.867 507.489 227.643Z" fill="#FDF5E2"/>
<path d="M558.489 245.951C554.216 254.265 548.657 262.258 540.72 267.209C532.783 272.16 522.097 273.503 514.146 268.608C510.23 266.216 507.265 262.58 503.846 259.517C500.426 256.454 496.153 253.832 491.559 254.23C486.496 254.671 482.531 258.622 479.139 262.405C473.992 268.153 469.02 274.146 465.377 280.951C458.384 294.028 456.727 309.314 457.034 324.139C457.342 338.965 459.489 353.713 459.538 368.538C459.608 386.776 456.517 404.867 453.391 422.832C482.132 419.293 510.909 427.027 539.713 429.957C558.146 431.853 576.72 431.811 595.251 431.762C598.51 431.762 601.978 431.678 604.692 429.874C606.35 428.664 607.691 427.071 608.601 425.23C611.16 420.51 612.188 415.125 612.901 409.804C614.713 396.363 614.769 382.755 614.818 369.188C614.943 336.321 615.062 303.335 610.887 270.727C609.859 262.706 608.545 254.643 605.468 247.139C602.391 239.636 597.37 232.734 590.349 228.713C585.839 226.125 575.384 221.622 570.069 224.23C564.104 227.139 561.349 240.384 558.489 245.951Z" fill="#E9ECEF"/>
<path d="M560.615 338.762C559.531 318.482 555.118 296.839 564.51 278.839C566.818 274.419 558.538 268.901 561.097 264.622C564.221 259.404 566.589 253.77 568.132 247.888C568.664 245.867 569.09 243.727 568.587 241.699C567.657 237.999 563.999 235.797 560.895 233.545C557.468 231.055 555.706 223.468 554.601 219.363C553.496 215.258 563.391 220.202 567.37 218.741C572.895 216.72 579.915 217.992 585.426 220.041C588.503 221.174 591.846 221.272 595.125 221.356C601.496 221.524 607.887 221.685 614.209 220.902C617.048 220.545 619.894 220.006 622.748 220.167C630.027 220.58 636.356 225.559 640.664 231.447C644.971 237.335 647.713 244.195 651.244 250.573C654.188 255.888 657.699 260.908 660.209 266.44C662.433 271.335 663.838 276.594 665.23 281.825L668.817 295.244C669.445 297.164 669.743 299.176 669.699 301.195C669.517 303.342 668.566 305.342 667.601 307.251C663.952 314.327 659.576 321.004 654.545 327.174C646.999 336.426 637.839 344.769 633.356 355.845C631.608 360.16 630.636 364.748 629.748 369.321C626.167 387.613 623.622 406.092 622.125 424.671C613.954 420.889 605.389 418.026 596.587 416.132C592.199 415.193 587.764 414.493 583.3 414.034C579.391 413.629 574.349 414.398 570.629 413.335C564.405 411.566 563.72 401.041 562.776 395.531C561.265 386.755 560.964 377.824 560.908 368.957C560.839 358.873 561.153 348.811 560.615 338.762Z" fill="#EF476F"/>
<path d="M423.937 300.839C426.881 317.622 430.125 334.454 436.524 350.224C436.363 350.377 436.202 350.517 436.042 350.657C435.475 351.14 434.888 351.594 434.272 352.056C432.839 353.063 431.265 353.916 430.077 355.231C429.626 355.734 429.271 356.314 429.028 356.944C428.808 357.436 428.694 357.968 428.694 358.507C428.694 359.045 428.808 359.578 429.028 360.07C425.692 361.545 421.818 361.091 418.076 360.951C414.853 360.832 411.727 360.951 409.139 362.72C405.545 365.196 404.461 369.951 403.881 374.272C403.666 375.848 403.482 377.426 403.328 379.007C403.179 380.475 403.058 381.948 402.965 383.426C402.648 388.315 402.603 393.218 402.832 398.112C402.869 399.007 402.918 399.902 402.979 400.797C391.552 400.524 381.139 394.566 371.286 388.776C369.035 387.454 366.713 386.063 365.251 383.881C363.905 381.738 363.334 379.198 363.636 376.685C363.636 376.328 363.699 375.986 363.748 375.622C364.061 373.547 364.598 371.512 365.349 369.552C368.432 361.205 372.976 353.474 378.769 346.72C381.272 343.797 384.091 340.937 385.258 337.266C385.769 335.664 385.958 333.965 386.475 332.37C388.797 325.461 397.174 322.196 400.042 315.489C400.741 313.888 401.063 312.133 401.93 310.594C402.71 309.316 403.717 308.19 404.902 307.273C405.412 306.846 405.944 306.433 406.468 306.021C411.382 302.17 416.116 298.102 420.671 293.818C421.519 293.021 422.359 292.214 423.188 291.398C423.078 294.564 423.329 297.731 423.937 300.839Z" fill="#EF476F"/>
<path d="M494.405 251.202C493.398 252.265 492.307 253.265 491.237 254.258L490.95 254.517L489.818 255.566C487.761 257.341 485.982 259.412 484.538 261.713L484.419 261.909C480.853 268.293 482.174 276.153 483.167 283.405C484.399 292.442 484.953 301.558 484.825 310.678C484.643 323.265 483.16 335.769 483.132 348.342C483.132 351.195 483.195 354.041 483.321 356.895C483.524 361.531 483.874 366.16 484.293 370.79C484.748 375.867 485.293 380.936 485.804 386.006C486.209 389.929 486.594 393.846 486.916 397.762C487.076 399.79 487.23 401.811 487.356 403.839C487.503 406.216 487.622 408.601 487.692 410.978C487.741 412.489 487.769 413.992 487.769 415.503C487.769 416.363 487.769 417.216 487.769 418.069C487.769 419.706 487.724 421.337 487.636 422.964C487.543 425.058 487.4 427.156 487.209 429.258C486.992 431.545 486.608 434.041 484.999 435.65C484.902 435.748 484.797 435.839 484.692 435.929L482.426 435.65C466.807 433.78 451.039 433.499 435.363 434.811C435.706 432.447 436.02 430.09 436.328 427.72C436.468 426.601 436.608 425.475 436.741 424.349C436.895 423.062 437.041 421.776 437.181 420.489C437.342 419.09 437.489 417.692 437.629 416.293C437.992 412.689 438.312 409.083 438.587 405.475C438.992 400.212 439.3 394.939 439.51 389.657C439.613 387.135 439.692 384.61 439.748 382.083C439.827 378.95 439.864 375.815 439.86 372.678C439.86 369.629 439.834 366.575 439.783 363.517C439.783 362.51 439.741 361.503 439.657 360.503C439.597 359.603 439.473 358.708 439.286 357.825C438.767 355.789 438.065 353.804 437.188 351.895C437.034 351.531 436.888 351.195 436.741 350.811C436.657 350.622 436.58 350.426 436.503 350.237C440.531 346.65 443.398 341.846 446.153 337.118C450.622 329.503 455.195 321.552 455.944 312.755C456.692 303.958 452.321 294.076 443.916 291.391C441.629 290.692 439.209 290.496 436.853 290.083C434.629 289.692 429.993 288.804 427.419 287.209C426.02 288.645 424.622 290.055 423.223 291.44C423.308 289.327 423.825 287.255 424.741 285.349L425.734 285.398C425.653 285.174 425.615 284.937 425.622 284.699C425.622 283.951 426.139 283.104 427.244 282.167C430.538 279.37 435.72 278.748 437.797 274.965C438.664 273.391 438.811 271.517 439.51 269.867C441.517 265.16 447.279 263.426 450.748 259.664C454.216 255.902 455.083 250.573 457.888 246.377C459.982 243.313 462.888 240.892 466.279 239.384C466.559 239.251 466.846 239.118 467.132 239C472.937 236.517 479.832 235.951 485.846 235.965C488.181 235.965 494.237 236.035 497.202 237.216C497.683 237.388 498.123 237.657 498.496 238.007C501.657 241.447 496.741 248.713 494.405 251.202Z" fill="#EF476F"/>
<path d="M424.979 284.86C430.381 283.234 436.052 282.697 441.663 283.282C447.274 283.867 452.713 285.561 457.664 288.266C462.699 291.063 467.216 294.965 469.985 300C474.146 307.552 473.964 316.657 473.671 325.279C473.524 329.594 473.335 334.063 471.433 337.937C469.23 342.419 465.076 345.496 460.839 348.014C458.184 349.707 455.275 350.966 452.223 351.741C447.524 352.762 442.643 351.895 437.909 351.042C432.762 350.091 427.237 348.944 423.664 345.112C421.566 342.888 420.419 340 419.286 337.175C417.659 333.095 416.028 329.021 414.391 324.951C411.559 317.881 410.601 312 414.342 305.112C416.041 301.972 418.118 299.035 419.797 295.874C420.636 294.266 423.643 285.273 424.979 284.86Z" fill="#EF476F"/>
<path d="M718.88 405.748V426.657C704.536 432.616 689.148 435.659 673.615 435.608H485.021C484.923 435.706 484.818 435.796 484.713 435.887L482.447 435.608H146.972C118.825 435.608 92.7412 428.013 71.3496 415.076V383.153L232.692 364.531H232.818L326.776 372.489L351.091 374.587L363.72 375.657L389.86 377.873L403.307 379.013L422.888 380.678L425.643 380.908L439.755 382.104L458.902 383.678L485.825 385.957L530.706 389.769L562.279 392.447L614.125 396.845L623.985 397.678L625.048 397.769L625.971 397.845L638.992 398.95L653.286 400.167L654.943 400.307L718.88 405.748Z" fill="#504F60"/>
<path d="M529.37 404.979L327.174 370.468L319.335 410.112L412.021 421.209L440.559 424.783L519.062 409.321L529.37 404.979Z" fill="#9C9CA1"/>
<path d="M424.706 422.797L526.006 403.755C526.513 403.658 527.035 403.674 527.535 403.803C528.035 403.931 528.5 404.169 528.897 404.498C529.294 404.828 529.613 405.241 529.832 405.709C530.05 406.176 530.162 406.686 530.16 407.202C530.163 408.021 529.877 408.814 529.355 409.444C528.832 410.074 528.105 410.501 527.3 410.65L428.37 429.174L424.706 422.797Z" fill="#9C9CA1"/>
<path d="M468.65 362.915C471.804 362.622 474.999 362.125 477.839 360.727C481.335 358.985 484.055 355.985 487.293 353.776C494.412 348.88 503.936 348.223 512.097 351.034C520.258 353.846 527.069 359.866 531.839 367.055C535.006 371.845 537.384 377.957 535.146 383.244C534.378 384.86 533.411 386.373 532.265 387.748L526.433 395.37C525.325 396.972 523.992 398.407 522.475 399.629C520.293 401.216 517.58 401.866 514.908 402.258C507.811 403.293 500.587 402.706 493.433 403.181C481.146 403.999 469.146 407.957 456.832 407.825C449.755 407.748 442.769 406.321 435.853 404.894L405.244 398.601C399.916 397.51 393.895 395.915 391.384 391.083C390.258 388.908 390.048 386.391 389.916 383.943C389.552 377.202 389.916 369.706 394.587 364.846C398.979 360.286 405.923 358.845 411.167 355.475C417.587 351.342 419.706 352.678 426.475 355.783C439.681 361.763 454.211 364.221 468.65 362.915Z" fill="#F9EFD9"/>
<path d="M591.566 353.328C582.978 356.65 574.342 359.986 565.349 361.965C550.272 365.286 534.496 364.762 519.538 368.559C511.636 370.573 503.783 373.818 495.664 373.16C492.034 372.867 488.531 371.762 484.999 370.923C465.16 366.028 442.608 367.615 426.496 380.202C420.986 384.503 416.475 389.867 412.384 395.587C411.509 396.822 410.917 398.236 410.652 399.727C410.386 401.218 410.453 402.749 410.848 404.21C411.243 405.672 411.956 407.029 412.936 408.183C413.916 409.337 415.139 410.261 416.517 410.888C422.783 413.769 429.495 415.559 436.363 416.181C445.545 416.993 454.769 415.692 463.902 414.391C477.454 412.468 491.013 410.538 504.531 408.377C509.384 407.601 514.237 406.797 519.118 406.181C554.244 401.741 590.006 407.139 625.223 403.433C628.783 403.055 632.405 402.566 635.643 401.049C643.838 397.202 647.894 387.062 646.202 378.153C644.51 369.244 637.978 361.839 630.118 357.293C623.531 353.468 616.426 351.923 609.09 350.3C602.279 348.713 598.125 350.811 591.566 353.328Z" fill="#FDF5E2"/>
<path opacity="0.1" d="M666.901 300.07C670.775 305.147 671.601 311.958 671.181 318.315C670.761 324.671 669.251 330.958 669.027 337.342C668.72 346.098 670.831 354.825 670.475 363.552C670.223 369.657 668.775 375.643 667.062 381.503C665.041 388.419 662.118 395.853 655.734 399.175C647.258 403.587 629.482 401.105 620.566 404.559C621.377 399.503 629.153 392.182 629.964 387.126C630.524 383.629 631.09 380.035 630.489 376.531C629.72 372.063 627.097 368.098 623.985 364.797C619.034 359.545 612.573 355.594 605.475 354.307C598.377 353.021 580.999 354.077 575.321 358.559C574.622 353.93 587.629 349.468 592.202 348.468C594.482 347.958 597.097 348.245 598.922 346.797C602.419 344.056 599.88 338.594 600.048 334.21C600.181 330.713 602.223 327.51 602.636 324.014C603.335 318.419 599.685 312.72 601.118 307.231C601.65 305.203 602.831 303.419 603.65 301.489C606.139 295.58 605.048 288.839 603.72 282.559C602.894 278.615 602.09 274.168 604.286 270.804C606.321 267.664 612.097 278.846 615.797 278.329C628.013 276.615 639.069 267.559 648.936 274.972C653.964 278.748 654.622 282.664 656.629 288.056C658.58 293.189 663.636 295.818 666.901 300.07Z" fill="black"/>
<path d="M668.999 300.07C672.873 305.147 673.699 311.958 673.279 318.315C672.859 324.671 671.349 330.958 671.125 337.342C670.817 346.098 672.929 354.825 672.573 363.552C672.321 369.657 670.873 375.643 669.16 381.503C667.139 388.419 664.216 395.853 657.831 399.175C649.356 403.587 631.58 401.105 622.664 404.559C623.475 399.503 631.251 392.182 632.062 387.126C632.622 383.629 633.188 380.035 632.587 376.531C631.817 372.063 629.195 368.098 626.083 364.797C621.132 359.545 614.671 355.594 607.573 354.308C600.475 353.021 583.097 354.077 577.419 358.559C576.72 353.93 589.727 349.468 594.3 348.468C596.58 347.958 599.195 348.245 601.02 346.797C604.517 344.056 601.978 338.594 602.146 334.21C602.279 330.713 604.321 327.51 604.734 324.014C605.433 318.419 601.782 312.72 603.216 307.231C603.748 305.203 604.929 303.419 605.748 301.489C608.237 295.58 607.146 288.839 605.817 282.559C604.992 278.615 604.188 274.168 606.384 270.804C608.419 267.664 612.398 266.475 616.097 265.951C628.483 264.276 641.033 267.513 651.062 274.972C656.09 278.748 656.748 282.664 658.755 288.056C660.678 293.189 665.733 295.818 668.999 300.07Z" fill="#EF476F"/>
<path d="M206.294 266.937L244.314 407.454C244.781 409.176 245.761 410.715 247.124 411.865C248.487 413.016 250.168 413.724 251.944 413.895L423.077 430.336C424.471 430.47 425.878 430.268 427.179 429.747C428.479 429.226 429.636 428.401 430.553 427.341C431.469 426.281 432.118 425.017 432.445 423.654C432.772 422.292 432.768 420.871 432.433 419.51L390.797 250.014C390.301 247.999 389.108 246.226 387.428 245.008C385.748 243.79 383.691 243.208 381.622 243.364L214.077 255.895C212.79 255.995 211.542 256.378 210.42 257.016C209.299 257.654 208.332 258.531 207.588 259.586C206.845 260.64 206.344 261.846 206.12 263.117C205.896 264.387 205.955 265.692 206.294 266.937Z" fill="#9C9CA1"/>
<path d="M545.531 294.356C555.92 294.356 564.342 285.825 564.342 275.301C564.342 264.776 555.92 256.245 545.531 256.245C535.142 256.245 526.72 264.776 526.72 275.301C526.72 285.825 535.142 294.356 545.531 294.356Z" fill="white"/>
<path d="M560.978 240.538C560.978 240.538 564.943 252.328 553.244 257.286L551.748 259.902L559.076 267.133C559.076 267.133 568.111 250.65 567.132 244.797C567.132 244.797 565.734 238.853 560.978 240.538Z" fill="white"/>
<path d="M547.692 294.356C557.71 294.356 565.832 286.235 565.832 276.217C565.832 266.198 557.71 258.077 547.692 258.077C537.673 258.077 529.552 266.198 529.552 276.217C529.552 286.235 537.673 294.356 547.692 294.356Z" fill="#118AB2"/>
<path d="M567.223 247.475L564.342 242.72L560.146 242.126C561.041 226.468 556.978 221.804 556.978 221.804L556.034 221.713L551.922 221.315L544.188 213.287V211.007C555.055 212.301 561.062 217.461 564.307 223.51C570.041 234.126 567.223 247.475 567.223 247.475Z" fill="#118AB2"/>
<path opacity="0.1" d="M556.069 218.832V221.713L551.957 221.315L544.223 213.287C544.223 213.287 556.188 215.965 556.069 218.832Z" fill="black" stroke="#4C4981" stroke-miterlimit="10"/>
<path opacity="0.1" d="M567.223 247.475L564.342 242.72V223.538C570.041 234.125 567.223 247.475 567.223 247.475Z" fill="black" stroke="#4C4981" stroke-miterlimit="10"/>
<path d="M514.172 283.673C518.998 280.887 518.791 271.491 513.708 262.688C508.625 253.885 500.593 249.007 495.766 251.794C490.94 254.58 491.147 263.976 496.23 272.779C501.313 281.582 509.345 286.46 514.172 283.673Z" fill="white"/>
<path d="M507.692 266.196C512.776 275 519.013 280.881 514.188 283.678C509.363 286.475 495.307 285.077 490.223 276.266C485.139 267.454 489.755 255.287 494.58 252.489C499.405 249.692 502.601 257.371 507.692 266.196Z" fill="#118AB2"/>
<path opacity="0.1" d="M552.957 202.769C552.957 230.902 533.706 258.013 505.573 258.013C492.062 258.013 479.104 252.646 469.55 243.092C459.996 233.538 454.629 220.581 454.629 207.069C454.629 193.558 459.996 180.6 469.55 171.047C479.104 161.493 492.062 156.125 505.573 156.125C533.706 156.153 552.957 174.629 552.957 202.769Z" fill="black"/>
<path d="M505.573 256.643C533.708 256.643 556.517 233.834 556.517 205.699C556.517 177.563 533.708 154.755 505.573 154.755C477.437 154.755 454.629 177.563 454.629 205.699C454.629 233.834 477.437 256.643 505.573 256.643Z" fill="#FDF5E2"/>
<path d="M501.097 183.126C507.16 185.356 510.748 191.622 516.188 195.112C523.881 200.007 533.895 198.741 542.678 196.321C547.573 194.986 552.692 193.356 557.51 194.839C558.219 195.153 559 195.264 559.769 195.161C560.818 194.86 561.335 193.699 561.678 192.664C567.636 174.902 564.957 154.783 555.964 138.35C553.643 134.112 550.86 130.014 547.027 127.07C544.006 124.755 540.454 123.238 536.874 121.944C530.33 119.594 523.563 117.923 516.678 116.958C515.462 116.737 514.22 116.697 512.992 116.839C511.307 117.112 509.797 118.021 508.293 118.832C501.854 122.284 494.713 124.223 487.412 124.503C477.622 124.874 466.433 122.566 458.888 128.846C449.797 136.378 452.062 151.07 446.167 161.294C442.265 168.056 434.741 172.965 433.503 180.664C433.181 183.017 433.33 185.411 433.944 187.706C436.825 199.552 448.293 208.727 460.517 208.944C462.394 209.087 464.274 208.702 465.944 207.832C467.037 207.085 468.003 206.167 468.804 205.112C476.811 195.629 485.972 177.559 501.097 183.126Z" fill="#444053"/>
<path opacity="0.1" d="M561.678 187.51C561.335 188.545 560.818 189.706 559.769 190.007C559 190.11 558.219 189.999 557.51 189.685C552.692 188.203 547.545 189.832 542.685 191.168C533.895 193.587 523.86 194.881 516.195 189.958C510.748 186.461 507.167 180.168 501.097 177.972C485.972 172.377 476.811 190.475 468.783 199.958C467.982 201.013 467.017 201.932 465.923 202.678C464.253 203.548 462.373 203.933 460.496 203.79C448.314 203.573 436.839 194.398 433.923 182.552C433.762 181.853 433.622 181.154 433.517 180.454C433.517 180.517 433.517 180.573 433.482 180.636C433.16 182.989 433.31 185.383 433.923 187.678C436.804 199.524 448.279 208.699 460.496 208.916C462.373 209.059 464.253 208.674 465.923 207.804C467.017 207.057 467.982 206.139 468.783 205.084C476.811 195.601 485.972 177.531 501.097 183.098C507.167 185.328 510.748 191.594 516.195 195.084C523.888 199.979 533.895 198.713 542.685 196.293C547.58 194.958 552.692 193.328 557.51 194.811C558.219 195.125 559 195.236 559.769 195.133C560.818 194.832 561.335 193.671 561.678 192.636C564.081 185.368 565.142 177.724 564.811 170.077C564.605 176.008 563.55 181.879 561.678 187.51Z" fill="black"/>
<circle cx="312.587" cy="335.664" r="6.993" fill="white"/>
</svg>
