<svg width="355" height="145" viewBox="0 0 355 145" fill="none" xmlns="http://www.w3.org/2000/svg">
<rect x="284.154" y="105.633" width="45" height="15" rx="7.5" transform="rotate(-5 284.154 105.633)" fill="white" fill-opacity="0.5"/>
<rect x="147.115" y="42.336" width="60" height="15" rx="7.5" transform="rotate(-5 147.115 42.336)" fill="white" fill-opacity="0.5"/>
<rect x="22.1271" y="53.5506" width="60" height="15" rx="7.5" transform="rotate(-5 22.1271 53.5506)" fill="white" fill-opacity="0.5"/>
<rect x="249.1" y="83.6045" width="100" height="15" rx="7.5" transform="rotate(-5 249.1 83.6045)" fill="white" fill-opacity="0.5"/>
<rect x="239.575" y="9.15137" width="70" height="15" rx="7.5" transform="rotate(-5 239.575 9.15137)" fill="white" fill-opacity="0.5"/>
<rect x="100.108" y="21.3531" width="70" height="15" rx="7.5" transform="rotate(-5 100.108 21.3531)" fill="white" fill-opacity="0.5"/>
<rect x="176.192" y="64.8877" width="100" height="15" rx="7.5" transform="rotate(-5 176.192 64.8877)" fill="white" fill-opacity="0.5"/>
<rect x="271.64" y="31.4415" width="75" height="15" rx="7.5" transform="rotate(-5 271.64 31.4415)" fill="white" fill-opacity="0.5"/>
<rect x="199.477" y="113.042" width="75" height="15" rx="7.5" transform="rotate(-5 199.477 113.042)" fill="white" fill-opacity="0.5"/>
<rect x="75.5759" y="73.6904" width="90" height="15" rx="7.5" transform="rotate(-5 75.5759 73.6904)" fill="white" fill-opacity="0.5"/>
<rect x="0.0242615" y="30.3889" width="90" height="15" rx="7.5" transform="rotate(-5 0.0242615 30.3889)" fill="white" fill-opacity="0.5"/>
<rect x="99.671" y="96.6779" width="100" height="15" rx="7.5" transform="rotate(-5 99.671 96.6779)" fill="white" fill-opacity="0.5"/>
<rect x="216.849" y="36.2351" width="45" height="15" rx="7.5" transform="rotate(-5 216.849 36.2351)" fill="white" fill-opacity="0.5"/>
<rect x="92.3247" y="47.1296" width="45" height="15" rx="7.5" transform="rotate(-5 92.3247 47.1296)" fill="white" fill-opacity="0.5"/>
<rect x="89.8956" y="122.629" width="45" height="15" rx="7.5" transform="rotate(-5 89.8956 122.629)" fill="white" fill-opacity="0.5"/>
<rect x="20.234" y="77.8079" width="45" height="15" rx="7.5" transform="rotate(-5 20.234 77.8079)" fill="white" fill-opacity="0.5"/>
<rect x="144.686" y="117.835" width="45" height="15" rx="7.5" transform="rotate(-5 144.686 117.835)" fill="white" fill-opacity="0.5"/>
<rect x="209.252" y="87.0907" width="30" height="15" rx="7.5" transform="rotate(-5 209.252 87.0907)" fill="white" fill-opacity="0.5"/>
<rect x="285.773" y="55.3005" width="30" height="15" rx="7.5" transform="rotate(-5 285.773 55.3005)" fill="white" fill-opacity="0.5"/>
<rect x="59.3593" y="100.484" width="30" height="15" rx="7.5" transform="rotate(-5 59.3593 100.484)" fill="white" fill-opacity="0.5"/>
<rect x="179.803" y="14.3807" width="50" height="15" rx="7.5" transform="rotate(-5 179.803 14.3807)" fill="white" fill-opacity="0.5"/>
</svg>
