<svg width="359" height="141" viewBox="0 0 359 141" fill="none" xmlns="http://www.w3.org/2000/svg">
<rect y="30.5045" width="20" height="20" rx="3" transform="rotate(-5 0 30.5045)" fill="white" fill-opacity="0.5"/>
<rect x="29.8858" y="27.8898" width="20" height="20" rx="3" transform="rotate(-5 29.8858 27.8898)" fill="white" fill-opacity="0.5"/>
<rect x="59.7717" y="25.2751" width="20" height="20" rx="3" transform="rotate(-5 59.7717 25.2751)" fill="white" fill-opacity="0.5"/>
<rect x="89.6575" y="22.6605" width="20" height="20" rx="3" transform="rotate(-5 89.6575 22.6605)" fill="white" fill-opacity="0.5"/>
<rect x="239.087" y="9.58716" width="20" height="20" rx="3" transform="rotate(-5 239.087 9.58716)" fill="white" fill-opacity="0.5"/>
<rect x="268.973" y="6.97247" width="20" height="20" rx="3" transform="rotate(-5 268.973 6.97247)" fill="white" fill-opacity="0.5"/>
<rect x="298.858" y="4.35779" width="20" height="20" rx="3" transform="rotate(-5 298.858 4.35779)" fill="white" fill-opacity="0.5"/>
<rect x="328.744" y="1.7431" width="20" height="20" rx="3" transform="rotate(-5 328.744 1.7431)" fill="white" fill-opacity="0.5"/>
<rect x="119.543" y="20.0458" width="20" height="20" rx="3" transform="rotate(-5 119.543 20.0458)" fill="white" fill-opacity="0.5"/>
<rect x="149.429" y="17.4312" width="20" height="20" rx="3" transform="rotate(-5 149.429 17.4312)" fill="white" fill-opacity="0.5"/>
<rect x="179.315" y="14.8165" width="20" height="20" rx="3" transform="rotate(-5 179.315 14.8165)" fill="white" fill-opacity="0.5"/>
<rect x="209.201" y="12.2018" width="20" height="20" rx="3" transform="rotate(-5 209.201 12.2018)" fill="white" fill-opacity="0.5"/>
<rect x="2.61469" y="60.3904" width="20" height="20" rx="3" transform="rotate(-5 2.61469 60.3904)" fill="white" fill-opacity="0.5"/>
<rect x="32.5005" y="57.7757" width="20" height="20" rx="3" transform="rotate(-5 32.5005 57.7757)" fill="white" fill-opacity="0.5"/>
<rect x="62.3864" y="55.161" width="20" height="20" rx="3" transform="rotate(-5 62.3864 55.161)" fill="white" fill-opacity="0.5"/>
<rect x="92.2722" y="52.5463" width="20" height="20" rx="3" transform="rotate(-5 92.2722 52.5463)" fill="white" fill-opacity="0.5"/>
<rect x="241.701" y="39.473" width="20" height="20" rx="3" transform="rotate(-5 241.701 39.473)" fill="white" fill-opacity="0.5"/>
<rect x="271.587" y="36.8583" width="20" height="20" rx="3" transform="rotate(-5 271.587 36.8583)" fill="white" fill-opacity="0.5"/>
<rect x="301.473" y="34.2437" width="20" height="20" rx="3" transform="rotate(-5 301.473 34.2437)" fill="white" fill-opacity="0.5"/>
<rect x="331.359" y="31.629" width="20" height="20" rx="3" transform="rotate(-5 331.359 31.629)" fill="white" fill-opacity="0.5"/>
<rect x="122.158" y="49.9316" width="20" height="20" rx="3" transform="rotate(-5 122.158 49.9316)" fill="white" fill-opacity="0.5"/>
<rect x="152.044" y="47.317" width="20" height="20" rx="3" transform="rotate(-5 152.044 47.317)" fill="white" fill-opacity="0.5"/>
<rect x="181.93" y="44.7023" width="20" height="20" rx="3" transform="rotate(-5 181.93 44.7023)" fill="white" fill-opacity="0.5"/>
<rect x="211.816" y="42.0876" width="20" height="20" rx="3" transform="rotate(-5 211.816 42.0876)" fill="white" fill-opacity="0.5"/>
<rect x="5.22934" y="90.2762" width="20" height="20" rx="3" transform="rotate(-5 5.22934 90.2762)" fill="white" fill-opacity="0.5"/>
<rect x="35.1152" y="87.6615" width="20" height="20" rx="3" transform="rotate(-5 35.1152 87.6615)" fill="white" fill-opacity="0.5"/>
<rect x="65.001" y="85.0469" width="20" height="20" rx="3" transform="rotate(-5 65.001 85.0469)" fill="white" fill-opacity="0.5"/>
<rect x="94.8869" y="82.4321" width="20" height="20" rx="3" transform="rotate(-5 94.8869 82.4321)" fill="white" fill-opacity="0.5"/>
<rect x="244.316" y="69.3588" width="20" height="20" rx="3" transform="rotate(-5 244.316 69.3588)" fill="white" fill-opacity="0.5"/>
<rect x="274.202" y="66.7441" width="20" height="20" rx="3" transform="rotate(-5 274.202 66.7441)" fill="white" fill-opacity="0.5"/>
<rect x="304.088" y="64.1295" width="20" height="20" rx="3" transform="rotate(-5 304.088 64.1295)" fill="white" fill-opacity="0.5"/>
<rect x="333.974" y="61.5148" width="20" height="20" rx="3" transform="rotate(-5 333.974 61.5148)" fill="white" fill-opacity="0.5"/>
<rect x="124.773" y="79.8175" width="20" height="20" rx="3" transform="rotate(-5 124.773 79.8175)" fill="white" fill-opacity="0.5"/>
<rect x="154.659" y="77.2028" width="20" height="20" rx="3" transform="rotate(-5 154.659 77.2028)" fill="white" fill-opacity="0.5"/>
<rect x="184.544" y="74.5882" width="20" height="20" rx="3" transform="rotate(-5 184.544 74.5882)" fill="white" fill-opacity="0.5"/>
<rect x="214.43" y="71.9735" width="20" height="20" rx="3" transform="rotate(-5 214.43 71.9735)" fill="white" fill-opacity="0.5"/>
<rect x="7.84402" y="120.162" width="20" height="20" rx="3" transform="rotate(-5 7.84402 120.162)" fill="white" fill-opacity="0.5"/>
<rect x="37.7299" y="117.547" width="20" height="20" rx="3" transform="rotate(-5 37.7299 117.547)" fill="white" fill-opacity="0.5"/>
<rect x="67.6157" y="114.933" width="20" height="20" rx="3" transform="rotate(-5 67.6157 114.933)" fill="white" fill-opacity="0.5"/>
<rect x="97.5016" y="112.318" width="20" height="20" rx="3" transform="rotate(-5 97.5016 112.318)" fill="white" fill-opacity="0.5"/>
<rect x="246.931" y="99.2446" width="20" height="20" rx="3" transform="rotate(-5 246.931 99.2446)" fill="white" fill-opacity="0.5"/>
<rect x="276.817" y="96.63" width="20" height="20" rx="3" transform="rotate(-5 276.817 96.63)" fill="white" fill-opacity="0.5"/>
<rect x="306.702" y="94.0153" width="20" height="20" rx="3" transform="rotate(-5 306.702 94.0153)" fill="white" fill-opacity="0.5"/>
<rect x="336.588" y="91.4006" width="20" height="20" rx="3" transform="rotate(-5 336.588 91.4006)" fill="white" fill-opacity="0.5"/>
<rect x="127.387" y="109.703" width="20" height="20" rx="3" transform="rotate(-5 127.387 109.703)" fill="white" fill-opacity="0.5"/>
<rect x="157.273" y="107.089" width="20" height="20" rx="3" transform="rotate(-5 157.273 107.089)" fill="white" fill-opacity="0.5"/>
<rect x="187.159" y="104.474" width="20" height="20" rx="3" transform="rotate(-5 187.159 104.474)" fill="white" fill-opacity="0.5"/>
<rect x="217.045" y="101.859" width="20" height="20" rx="3" transform="rotate(-5 217.045 101.859)" fill="white" fill-opacity="0.5"/>
</svg>
