<svg width="270" height="143" viewBox="0 0 270 143" fill="none" xmlns="http://www.w3.org/2000/svg">
<rect x="3.48627" y="62.5084" width="80" height="20" rx="2" transform="rotate(-5 3.48627 62.5084)" fill="white" fill-opacity="0.5"/>
<path d="M12.751 53.6672C12.6547 52.5668 13.4687 51.5968 14.569 51.5005L30.5082 50.106C31.6085 50.0097 32.5786 50.8237 32.6749 51.9241L33.3721 59.8936L13.4482 61.6368L12.751 53.6672Z" fill="white" fill-opacity="0.5"/>
<path d="M52.5987 50.181C52.5025 49.0806 53.3165 48.1106 54.4168 48.0143L70.3559 46.6198C71.4563 46.5235 72.4264 47.3375 72.5226 48.4379L73.2199 56.4074L53.296 58.1505L52.5987 50.181Z" fill="white" fill-opacity="0.5"/>
<rect x="185.416" y="76.7062" width="80" height="20" rx="2" transform="rotate(-5 185.416 76.7062)" fill="white" fill-opacity="0.5"/>
<path d="M194.681 67.865C194.584 66.7646 195.398 65.7946 196.499 65.6983L212.438 64.3038C213.538 64.2075 214.508 65.0215 214.605 66.1219L215.302 74.0915L195.378 75.8346L194.681 67.865Z" fill="white" fill-opacity="0.5"/>
<path d="M234.528 64.3788C234.432 63.2784 235.246 62.3084 236.347 62.2121L252.286 60.8176C253.386 60.7213 254.356 61.5353 254.452 62.6357L255.15 70.6052L235.226 72.3484L234.528 64.3788Z" fill="white" fill-opacity="0.5"/>
<rect x="188.031" y="106.592" width="80" height="20" rx="2" transform="rotate(-5 188.031 106.592)" fill="white" fill-opacity="0.5"/>
<rect x="93.1437" y="54.6643" width="80" height="20" rx="2" transform="rotate(-5 93.1437 54.6643)" fill="white" fill-opacity="0.5"/>
<rect x="8.71558" y="122.28" width="80" height="20" rx="2" transform="rotate(-5 8.71558 122.28)" fill="white" fill-opacity="0.5"/>
<rect x="98.3731" y="114.436" width="80" height="20" rx="2" transform="rotate(-5 98.3731 114.436)" fill="white" fill-opacity="0.5"/>
<rect x="6.10089" y="92.3942" width="80" height="20" rx="2" transform="rotate(-5 6.10089 92.3942)" fill="white" fill-opacity="0.5"/>
<rect x="95.7584" y="84.5502" width="80" height="20" rx="2" transform="rotate(-5 95.7584 84.5502)" fill="white" fill-opacity="0.5"/>
<rect x="90.5291" y="24.7785" width="80" height="20" rx="2" transform="rotate(-5 90.5291 24.7785)" fill="white" fill-opacity="0.5"/>
<path d="M99.7938 15.9373C99.6975 14.837 100.512 13.8669 101.612 13.7706L117.551 12.3761C118.651 12.2799 119.621 13.0939 119.718 14.1942L120.415 22.1638L100.491 23.9069L99.7938 15.9373Z" fill="white" fill-opacity="0.5"/>
<path d="M139.642 12.4511C139.545 11.3508 140.359 10.3807 141.46 10.2844L157.399 8.88994C158.499 8.79367 159.469 9.60765 159.565 10.708L160.263 18.6776L140.339 20.4207L139.642 12.4511Z" fill="white" fill-opacity="0.5"/>
</svg>
