<svg width="750" height="478" viewBox="0 0 750 478" fill="none" xmlns="http://www.w3.org/2000/svg">
<path opacity="0.1" d="M700 283.424C700.008 293.685 698.597 303.898 695.808 313.773C693.112 323.293 689.146 332.407 684.017 340.868C684.017 371.523 663.323 398.018 633.285 410.623C620.734 415.837 607.269 418.5 593.678 418.455H132.884C108.255 418.455 85.432 411.81 66.7144 400.49C61.3575 397.265 56.2759 393.604 51.5212 389.543C30.717 371.664 17.8184 346.956 17.8184 319.666C6.1425 301.687 -0.04863 280.698 0.000287656 259.26C0.000287656 214.372 26.5501 175.774 64.585 158.733C69.6356 156.471 74.8544 154.606 80.1943 153.153C82.0829 152.639 83.992 152.178 85.9215 151.77C91.0651 150.675 96.2822 149.959 101.531 149.628C103.428 149.51 105.335 149.443 107.252 149.426H108.304C110.422 149.426 112.52 149.5 114.607 149.622L115.292 148.46C116.132 147.056 116.993 145.667 117.874 144.293C119.465 141.788 121.134 139.32 122.88 136.889C124.707 134.323 126.614 131.798 128.601 129.314L129.109 128.702C130.234 127.299 131.385 125.912 132.56 124.541C136.231 120.262 140.106 116.111 144.185 112.089C188.309 68.8409 257.434 41 335.143 41C395.61 41 450.882 57.8575 493.218 85.7106C509.257 76.6342 527.375 71.8717 545.804 71.8881C605.61 71.8881 654.108 121.065 654.108 181.728C654.099 185.566 653.895 189.402 653.496 193.219C667.912 203.424 679.663 216.947 687.756 232.646C695.85 248.345 700.049 265.761 700 283.424Z" fill="#118AB2"/>
<path opacity="0.2" d="M139.914 115.761V128.212H128.288C131.931 123.937 135.806 119.787 139.914 115.761Z" fill="#06D6A0"/>
<path opacity="0.2" d="M161.251 112.603H145.641V128.212H161.251V112.603Z" fill="#06D6A0"/>
<path opacity="0.2" d="M182.581 112.603H166.972V128.212H182.581V112.603Z" fill="#06D6A0"/>
<path opacity="0.2" d="M203.918 112.603H188.308V128.212H203.918V112.603Z" fill="#06D6A0"/>
<path opacity="0.2" d="M225.248 112.603H209.639V128.212H225.248V112.603Z" fill="#06D6A0"/>
<path opacity="0.2" d="M246.585 112.603H230.975V128.212H246.585V112.603Z" fill="#06D6A0"/>
<path d="M267.921 112.603H252.312V128.212H267.921V112.603Z" fill="#06D6A0"/>
<path opacity="0.2" d="M289.251 112.603H273.642V128.212H289.251V112.603Z" fill="#06D6A0"/>
<path opacity="0.2" d="M310.588 112.603H294.979V128.212H310.588V112.603Z" fill="#06D6A0"/>
<path opacity="0.2" d="M331.918 112.603H316.309V128.212H331.918V112.603Z" fill="#06D6A0"/>
<path d="M353.255 112.603H337.646V128.212H353.255V112.603Z" fill="#06D6A0"/>
<path opacity="0.2" d="M374.591 112.603H358.982V128.212H374.591V112.603Z" fill="#06D6A0"/>
<path opacity="0.2" d="M395.922 112.603H380.312V128.212H395.922V112.603Z" fill="#06D6A0"/>
<path opacity="0.2" d="M417.258 112.603H401.649V128.212H417.258V112.603Z" fill="#06D6A0"/>
<path opacity="0.2" d="M438.595 112.603H422.986V128.212H438.595V112.603Z" fill="#06D6A0"/>
<path opacity="0.2" d="M459.925 112.603H444.316V128.212H459.925V112.603Z" fill="#06D6A0"/>
<path opacity="0.2" d="M481.262 112.603H465.652V128.212H481.262V112.603Z" fill="#06D6A0"/>
<path d="M502.592 112.603H486.983V128.212H502.592V112.603Z" fill="#06D6A0"/>
<path d="M523.929 112.603H508.319V128.212H523.929V112.603Z" fill="#06D6A0"/>
<path opacity="0.2" d="M545.265 112.603H529.656V128.212H545.265V112.603Z" fill="#06D6A0"/>
<path opacity="0.2" d="M566.596 112.603H550.986V128.212H566.596V112.603Z" fill="#06D6A0"/>
<path d="M587.932 112.603H572.323V128.212H587.932V112.603Z" fill="#06D6A0"/>
<path d="M609.262 112.603H593.653V128.212H609.262V112.603Z" fill="#06D6A0"/>
<path d="M118.584 140.579V147.983H113.579C115.17 145.462 116.838 142.994 118.584 140.579Z" fill="#06D6A0"/>
<path opacity="0.2" d="M139.914 132.373H124.305V147.982H139.914V132.373Z" fill="#06D6A0"/>
<path d="M161.251 132.373H145.641V147.982H161.251V132.373Z" fill="#06D6A0"/>
<path opacity="0.2" d="M182.581 132.373H166.972V147.982H182.581V132.373Z" fill="#06D6A0"/>
<path opacity="0.7" d="M203.918 132.373H188.308V147.982H203.918V132.373Z" fill="#06D6A0"/>
<path opacity="0.2" d="M225.248 132.373H209.639V147.982H225.248V132.373Z" fill="#06D6A0"/>
<path opacity="0.4" d="M246.585 132.373H230.975V147.982H246.585V132.373Z" fill="#06D6A0"/>
<path d="M267.921 132.373H252.312V147.982H267.921V132.373Z" fill="#06D6A0"/>
<path opacity="0.4" d="M289.251 132.373H273.642V147.982H289.251V132.373Z" fill="#06D6A0"/>
<path opacity="0.2" d="M310.588 132.373H294.979V147.982H310.588V132.373Z" fill="#06D6A0"/>
<path opacity="0.4" d="M331.918 132.373H316.309V147.982H331.918V132.373Z" fill="#06D6A0"/>
<path d="M353.255 132.373H337.646V147.982H353.255V132.373Z" fill="#06D6A0"/>
<path opacity="0.4" d="M374.591 132.373H358.982V147.982H374.591V132.373Z" fill="#06D6A0"/>
<path opacity="0.4" d="M395.922 132.373H380.312V147.982H395.922V132.373Z" fill="#06D6A0"/>
<path opacity="0.2" d="M417.258 132.373H401.649V147.982H417.258V132.373Z" fill="#06D6A0"/>
<path opacity="0.4" d="M438.595 132.373H422.986V147.982H438.595V132.373Z" fill="#06D6A0"/>
<path opacity="0.4" d="M459.925 132.373H444.316V147.982H459.925V132.373Z" fill="#06D6A0"/>
<path opacity="0.2" d="M481.262 132.373H465.652V147.982H481.262V132.373Z" fill="#06D6A0"/>
<path opacity="0.2" d="M502.592 132.373H486.983V147.982H502.592V132.373Z" fill="#06D6A0"/>
<path opacity="0.4" d="M523.929 132.373H508.319V147.982H523.929V132.373Z" fill="#06D6A0"/>
<path opacity="0.2" d="M545.265 132.373H529.656V147.982H545.265V132.373Z" fill="#06D6A0"/>
<path d="M566.596 132.373H550.986V147.982H566.596V132.373Z" fill="#06D6A0"/>
<path d="M587.932 132.373H572.323V147.982H587.932V132.373Z" fill="#06D6A0"/>
<path d="M609.262 132.373H593.653V147.982H609.262V132.373Z" fill="#06D6A0"/>
<path opacity="0.2" d="M75.9108 156.849V167.759H60.3015V162.429C65.3521 160.167 70.5709 158.302 75.9108 156.849Z" fill="#06D6A0"/>
<path opacity="0.2" d="M97.2472 153.324V167.759H81.6379V155.466L97.2472 153.324Z" fill="#06D6A0"/>
<path d="M118.578 152.149H102.969V167.759H118.578V152.149Z" fill="#06D6A0"/>
<path opacity="0.7" d="M139.914 152.149H124.305V167.759H139.914V152.149Z" fill="#06D6A0"/>
<path d="M161.251 152.149H145.641V167.759H161.251V152.149Z" fill="#06D6A0"/>
<path opacity="0.7" d="M182.581 152.149H166.972V167.759H182.581V152.149Z" fill="#06D6A0"/>
<path opacity="0.7" d="M203.918 152.149H188.308V167.759H203.918V152.149Z" fill="#06D6A0"/>
<path opacity="0.2" d="M225.248 152.149H209.639V167.759H225.248V152.149Z" fill="#06D6A0"/>
<path opacity="0.4" d="M246.585 152.149H230.975V167.759H246.585V152.149Z" fill="#06D6A0"/>
<path opacity="0.4" d="M267.921 152.149H252.312V167.759H267.921V152.149Z" fill="#06D6A0"/>
<path d="M289.251 152.149H273.642V167.759H289.251V152.149Z" fill="#06D6A0"/>
<path opacity="0.2" d="M310.588 152.149H294.979V167.759H310.588V152.149Z" fill="#06D6A0"/>
<path opacity="0.4" d="M331.918 152.149H316.309V167.759H331.918V152.149Z" fill="#06D6A0"/>
<path d="M353.255 152.149H337.646V167.759H353.255V152.149Z" fill="#06D6A0"/>
<path opacity="0.2" d="M374.591 152.149H358.982V167.759H374.591V152.149Z" fill="#06D6A0"/>
<path opacity="0.4" d="M395.922 152.149H380.312V167.759H395.922V152.149Z" fill="#06D6A0"/>
<path opacity="0.2" d="M417.258 152.149H401.649V167.759H417.258V152.149Z" fill="#06D6A0"/>
<path d="M438.595 152.149H422.986V167.759H438.595V152.149Z" fill="#06D6A0"/>
<path opacity="0.2" d="M459.925 152.149H444.316V167.759H459.925V152.149Z" fill="#06D6A0"/>
<path opacity="0.7" d="M481.262 152.149H465.652V167.759H481.262V152.149Z" fill="#06D6A0"/>
<path opacity="0.7" d="M502.592 152.149H486.983V167.759H502.592V152.149Z" fill="#06D6A0"/>
<path opacity="0.4" d="M523.929 152.149H508.319V167.759H523.929V152.149Z" fill="#06D6A0"/>
<path opacity="0.2" d="M545.265 152.149H529.656V167.759H545.265V152.149Z" fill="#06D6A0"/>
<path d="M566.596 152.149H550.986V167.759H566.596V152.149Z" fill="#06D6A0"/>
<path d="M587.932 152.149H572.323V167.759H587.932V152.149Z" fill="#06D6A0"/>
<path d="M609.262 152.149H593.653V167.759H609.262V152.149Z" fill="#06D6A0"/>
<path opacity="0.2" d="M75.9108 171.919H60.3015V187.529H75.9108V171.919Z" fill="#06D6A0"/>
<path opacity="0.2" d="M97.2472 171.919H81.6379V187.529H97.2472V171.919Z" fill="#06D6A0"/>
<path opacity="0.2" d="M118.578 171.919H102.969V187.529H118.578V171.919Z" fill="#06D6A0"/>
<path opacity="0.2" d="M139.914 171.919H124.305V187.529H139.914V171.919Z" fill="#06D6A0"/>
<path d="M161.251 171.919H145.641V187.529H161.251V171.919Z" fill="#06D6A0"/>
<path opacity="0.7" d="M182.581 171.919H166.972V187.529H182.581V171.919Z" fill="#06D6A0"/>
<path opacity="0.7" d="M203.918 171.919H188.308V187.529H203.918V171.919Z" fill="#06D6A0"/>
<path opacity="0.2" d="M225.248 171.919H209.639V187.529H225.248V171.919Z" fill="#06D6A0"/>
<path opacity="0.2" d="M246.585 171.919H230.975V187.529H246.585V171.919Z" fill="#06D6A0"/>
<path opacity="0.4" d="M267.921 171.919H252.312V187.529H267.921V171.919Z" fill="#06D6A0"/>
<path opacity="0.4" d="M289.251 171.919H273.642V187.529H289.251V171.919Z" fill="#06D6A0"/>
<path d="M310.588 171.919H294.979V187.529H310.588V171.919Z" fill="#06D6A0"/>
<path opacity="0.2" d="M331.918 171.919H316.309V187.529H331.918V171.919Z" fill="#06D6A0"/>
<path opacity="0.4" d="M353.255 171.919H337.646V187.529H353.255V171.919Z" fill="#06D6A0"/>
<path opacity="0.4" d="M374.591 171.919H358.982V187.529H374.591V171.919Z" fill="#06D6A0"/>
<path opacity="0.4" d="M395.922 171.919H380.312V187.529H395.922V171.919Z" fill="#06D6A0"/>
<path opacity="0.4" d="M417.258 171.919H401.649V187.529H417.258V171.919Z" fill="#06D6A0"/>
<path opacity="0.2" d="M438.595 171.919H422.986V187.529H438.595V171.919Z" fill="#06D6A0"/>
<path opacity="0.2" d="M459.925 171.919H444.316V187.529H459.925V171.919Z" fill="#06D6A0"/>
<path opacity="0.2" d="M481.262 171.919H465.652V187.529H481.262V171.919Z" fill="#06D6A0"/>
<path opacity="0.2" d="M502.592 171.919H486.983V187.529H502.592V171.919Z" fill="#06D6A0"/>
<path opacity="0.7" d="M523.929 171.919H508.319V187.529H523.929V171.919Z" fill="#06D6A0"/>
<path opacity="0.7" d="M545.265 171.919H529.656V187.529H545.265V171.919Z" fill="#06D6A0"/>
<path opacity="0.4" d="M566.596 171.919H550.986V187.529H566.596V171.919Z" fill="#06D6A0"/>
<path opacity="0.2" d="M587.932 171.919H572.323V187.529H587.932V171.919Z" fill="#06D6A0"/>
<path d="M609.262 171.919H593.653V187.529H609.262V171.919Z" fill="#06D6A0"/>
<path opacity="0.2" d="M75.9108 191.696H60.3015V207.305H75.9108V191.696Z" fill="#06D6A0"/>
<path opacity="0.2" d="M97.2472 191.696H81.6379V207.305H97.2472V191.696Z" fill="#06D6A0"/>
<path opacity="0.4" d="M118.578 191.696H102.969V207.305H118.578V191.696Z" fill="#06D6A0"/>
<path opacity="0.2" d="M139.914 191.696H124.305V207.305H139.914V191.696Z" fill="#06D6A0"/>
<path opacity="0.2" d="M161.251 191.696H145.641V207.305H161.251V191.696Z" fill="#06D6A0"/>
<path opacity="0.7" d="M182.581 191.696H166.972V207.305H182.581V191.696Z" fill="#06D6A0"/>
<path opacity="0.7" d="M203.918 191.696H188.308V207.305H203.918V191.696Z" fill="#06D6A0"/>
<path opacity="0.2" d="M225.248 191.696H209.639V207.305H225.248V191.696Z" fill="#06D6A0"/>
<path opacity="0.2" d="M246.585 191.696H230.975V207.305H246.585V191.696Z" fill="#06D6A0"/>
<path opacity="0.4" d="M267.921 191.696H252.312V207.305H267.921V191.696Z" fill="#06D6A0"/>
<path d="M289.251 191.696H273.642V207.305H289.251V191.696Z" fill="#06D6A0"/>
<path opacity="0.2" d="M310.588 191.696H294.979V207.305H310.588V191.696Z" fill="#06D6A0"/>
<path d="M331.918 191.696H316.309V207.305H331.918V191.696Z" fill="#06D6A0"/>
<path d="M353.255 191.696H337.646V207.305H353.255V191.696Z" fill="#06D6A0"/>
<path d="M374.591 191.696H358.982V207.305H374.591V191.696Z" fill="#06D6A0"/>
<path opacity="0.2" d="M395.922 191.696H380.312V207.305H395.922V191.696Z" fill="#06D6A0"/>
<path d="M417.258 191.696H401.649V207.305H417.258V191.696Z" fill="#06D6A0"/>
<path opacity="0.2" d="M438.595 191.696H422.986V207.305H438.595V191.696Z" fill="#06D6A0"/>
<path opacity="0.2" d="M459.925 191.696H444.316V207.305H459.925V191.696Z" fill="#06D6A0"/>
<path opacity="0.2" d="M481.262 191.696H465.652V207.305H481.262V191.696Z" fill="#06D6A0"/>
<path opacity="0.2" d="M502.592 191.696H486.983V207.305H502.592V191.696Z" fill="#06D6A0"/>
<path opacity="0.2" d="M523.929 191.696H508.319V207.305H523.929V191.696Z" fill="#06D6A0"/>
<path opacity="0.7" d="M545.265 191.696H529.656V207.305H545.265V191.696Z" fill="#06D6A0"/>
<path opacity="0.2" d="M566.596 191.696H550.986V207.305H566.596V191.696Z" fill="#06D6A0"/>
<path opacity="0.2" d="M587.932 191.696H572.323V207.305H587.932V191.696Z" fill="#06D6A0"/>
<path d="M609.262 191.696H593.653V207.305H609.262V191.696Z" fill="#06D6A0"/>
<path opacity="0.2" d="M75.9108 211.466H60.3015V227.075H75.9108V211.466Z" fill="#06D6A0"/>
<path opacity="0.2" d="M97.2472 211.466H81.6379V227.075H97.2472V211.466Z" fill="#06D6A0"/>
<path opacity="0.2" d="M118.578 211.466H102.969V227.075H118.578V211.466Z" fill="#06D6A0"/>
<path opacity="0.4" d="M139.914 211.466H124.305V227.075H139.914V211.466Z" fill="#06D6A0"/>
<path opacity="0.2" d="M161.251 211.466H145.641V227.075H161.251V211.466Z" fill="#06D6A0"/>
<path opacity="0.2" d="M182.581 211.466H166.972V227.075H182.581V211.466Z" fill="#06D6A0"/>
<path opacity="0.7" d="M203.918 211.466H188.308V227.075H203.918V211.466Z" fill="#06D6A0"/>
<path opacity="0.2" d="M225.248 211.466H209.639V227.075H225.248V211.466Z" fill="#06D6A0"/>
<path opacity="0.2" d="M246.585 211.466H230.975V227.075H246.585V211.466Z" fill="#06D6A0"/>
<path opacity="0.2" d="M267.921 211.466H252.312V227.075H267.921V211.466Z" fill="#06D6A0"/>
<path d="M289.251 211.466H273.642V227.075H289.251V211.466Z" fill="#06D6A0"/>
<path opacity="0.2" d="M310.588 211.466H294.979V227.075H310.588V211.466Z" fill="#06D6A0"/>
<path d="M331.918 211.466H316.309V227.075H331.918V211.466Z" fill="#06D6A0"/>
<path d="M353.255 211.466H337.646V227.075H353.255V211.466Z" fill="#06D6A0"/>
<path opacity="0.2" d="M374.591 211.466H358.982V227.075H374.591V211.466Z" fill="#06D6A0"/>
<path opacity="0.2" d="M395.922 211.466H380.312V227.075H395.922V211.466Z" fill="#06D6A0"/>
<path opacity="0.2" d="M417.258 211.466H401.649V227.075H417.258V211.466Z" fill="#06D6A0"/>
<path opacity="0.2" d="M438.595 211.466H422.986V227.075H438.595V211.466Z" fill="#06D6A0"/>
<path opacity="0.2" d="M459.925 211.466H444.316V227.075H459.925V211.466Z" fill="#06D6A0"/>
<path opacity="0.2" d="M481.262 211.466H465.652V227.075H481.262V211.466Z" fill="#06D6A0"/>
<path opacity="0.2" d="M502.592 211.466H486.983V227.075H502.592V211.466Z" fill="#06D6A0"/>
<path opacity="0.2" d="M523.929 211.466H508.319V227.075H523.929V211.466Z" fill="#06D6A0"/>
<path opacity="0.2" d="M545.265 211.466H529.656V227.075H545.265V211.466Z" fill="#06D6A0"/>
<path opacity="0.2" d="M566.596 211.466H550.986V227.075H566.596V211.466Z" fill="#06D6A0"/>
<path opacity="0.4" d="M587.932 211.466H572.323V227.075H587.932V211.466Z" fill="#06D6A0"/>
<path d="M609.262 211.466H593.653V227.075H609.262V211.466Z" fill="#06D6A0"/>
<path opacity="0.7" d="M75.9108 231.242H60.3015V246.851H75.9108V231.242Z" fill="#06D6A0"/>
<path opacity="0.7" d="M97.2472 231.242H81.6379V246.851H97.2472V231.242Z" fill="#06D6A0"/>
<path opacity="0.7" d="M118.578 231.242H102.969V246.851H118.578V231.242Z" fill="#06D6A0"/>
<path opacity="0.7" d="M139.914 231.242H124.305V246.851H139.914V231.242Z" fill="#06D6A0"/>
<path opacity="0.7" d="M161.251 231.242H145.641V246.851H161.251V231.242Z" fill="#06D6A0"/>
<path opacity="0.2" d="M182.581 231.242H166.972V246.851H182.581V231.242Z" fill="#06D6A0"/>
<path opacity="0.2" d="M203.918 231.242H188.308V246.851H203.918V231.242Z" fill="#06D6A0"/>
<path opacity="0.2" d="M225.248 231.242H209.639V246.851H225.248V231.242Z" fill="#06D6A0"/>
<path opacity="0.2" d="M246.585 231.242H230.975V246.851H246.585V231.242Z" fill="#06D6A0"/>
<path opacity="0.2" d="M267.921 231.242H252.312V246.851H267.921V231.242Z" fill="#06D6A0"/>
<path opacity="0.2" d="M289.251 231.242H273.642V246.851H289.251V231.242Z" fill="#06D6A0"/>
<path d="M310.588 231.242H294.979V246.851H310.588V231.242Z" fill="#06D6A0"/>
<path opacity="0.2" d="M331.918 231.242H316.309V246.851H331.918V231.242Z" fill="#06D6A0"/>
<path opacity="0.2" d="M353.255 231.242H337.646V246.851H353.255V231.242Z" fill="#06D6A0"/>
<path opacity="0.2" d="M374.591 231.242H358.982V246.851H374.591V231.242Z" fill="#06D6A0"/>
<path d="M395.922 231.242H380.312V246.851H395.922V231.242Z" fill="#06D6A0"/>
<path opacity="0.2" d="M417.258 231.242H401.649V246.851H417.258V231.242Z" fill="#06D6A0"/>
<path opacity="0.2" d="M438.595 231.242H422.986V246.851H438.595V231.242Z" fill="#06D6A0"/>
<path opacity="0.2" d="M459.925 231.242H444.316V246.851H459.925V231.242Z" fill="#06D6A0"/>
<path opacity="0.2" d="M481.262 231.242H465.652V246.851H481.262V231.242Z" fill="#06D6A0"/>
<path opacity="0.2" d="M502.592 231.242H486.983V246.851H502.592V231.242Z" fill="#06D6A0"/>
<path opacity="0.2" d="M523.929 231.242H508.319V246.851H523.929V231.242Z" fill="#06D6A0"/>
<path opacity="0.2" d="M545.265 231.242H529.656V246.851H545.265V231.242Z" fill="#06D6A0"/>
<path opacity="0.2" d="M566.596 231.242H550.986V246.851H566.596V231.242Z" fill="#06D6A0"/>
<path opacity="0.2" d="M587.932 231.242H572.323V246.851H587.932V231.242Z" fill="#06D6A0"/>
<path d="M609.262 231.242H593.653V246.851H609.262V231.242Z" fill="#06D6A0"/>
<path d="M445.16 288.668C456.944 288.668 466.497 279.115 466.497 267.331C466.497 255.547 456.944 245.995 445.16 245.995C433.376 245.995 423.824 255.547 423.824 267.331C423.824 279.115 433.376 288.668 445.16 288.668Z" fill="#767D9F"/>
<path d="M444.053 240.188C446.182 249.48 447.989 258.842 449.474 268.273C449.921 271.076 450.319 274.031 449.303 276.681C448.452 278.89 446.721 280.615 445.362 282.549C444.004 284.482 442.976 286.96 443.802 289.175C444.628 291.391 447.039 292.602 449.34 293.226C455.924 295.001 462.942 293.71 469.495 291.788C472.462 291.024 475.307 289.846 477.945 288.288C480.723 286.526 483 284.078 485.092 281.557C494.644 269.974 500.897 256.072 506.784 242.256C503.001 242.6 499.191 242.039 495.669 240.62C492.146 239.201 489.011 236.964 486.524 234.093C484.113 231.26 482.345 227.314 483.703 223.85C479.72 226.035 474.99 226.182 470.701 227.675C468.041 228.691 465.48 229.95 463.052 231.438C460.123 233.131 457.211 234.856 454.314 236.614C451.004 238.609 447.902 240.384 444.053 240.188Z" fill="#FDF5E2"/>
<path d="M488.678 256.207C484.939 263.482 480.075 270.476 473.13 274.808C466.185 279.14 456.835 280.315 449.878 276.032C446.451 273.939 443.857 270.758 440.865 268.078C437.873 265.397 434.134 263.103 430.114 263.452C425.684 263.837 422.215 267.294 419.247 270.605C414.743 275.634 410.393 280.878 407.205 286.832C401.086 298.274 399.636 311.65 399.905 324.622C400.174 337.594 402.053 350.499 402.096 363.471C402.157 379.429 399.452 395.258 396.717 410.978C421.866 407.882 447.045 414.649 472.249 417.213C488.378 418.871 504.63 418.834 520.845 418.792C523.696 418.792 526.731 418.718 529.105 417.139C530.556 416.081 531.73 414.687 532.526 413.076C534.765 408.946 535.665 404.235 536.289 399.578C537.874 387.818 537.923 375.91 537.965 364.04C538.076 335.281 538.18 306.418 534.527 277.886C533.627 270.868 532.477 263.813 529.784 257.247C527.092 250.682 522.699 244.642 516.555 241.124C512.609 238.86 503.461 234.919 498.811 237.202C493.591 239.747 491.18 251.336 488.678 256.207Z" fill="#E9ECEF"/>
<path d="M490.538 337.416C489.59 319.672 485.729 300.734 493.946 284.984C495.965 281.117 488.721 276.289 490.96 272.544C493.693 267.978 495.766 263.049 497.116 257.902C497.581 256.133 497.954 254.261 497.514 252.486C496.7 249.25 493.5 247.322 490.783 245.352C487.784 243.174 486.243 236.535 485.276 232.943C484.309 229.351 492.967 233.677 496.449 232.398C501.283 230.63 507.426 231.744 512.248 233.536C514.94 234.528 517.865 234.613 520.735 234.687C526.309 234.834 531.902 234.974 537.433 234.289C539.917 233.977 542.408 233.506 544.904 233.646C551.274 234.007 556.812 238.364 560.581 243.516C564.35 248.668 566.749 254.671 569.839 260.251C572.415 264.902 575.486 269.295 577.683 274.135C579.629 278.418 580.859 283.02 582.076 287.597L585.215 299.339C585.764 301.018 586.025 302.779 585.986 304.546C585.827 306.424 584.995 308.174 584.151 309.845C580.958 316.036 577.129 321.879 572.727 327.277C566.124 335.373 558.109 342.673 554.187 352.365C552.657 356.14 551.806 360.154 551.029 364.156C547.896 380.161 545.669 396.331 544.36 412.587C537.21 409.278 529.715 406.773 522.013 405.116C518.174 404.294 514.293 403.681 510.388 403.28C506.967 402.925 502.555 403.598 499.3 402.668C493.854 401.12 493.255 391.911 492.429 387.089C491.107 379.41 490.844 371.597 490.795 363.838C490.734 355.014 491.009 346.209 490.538 337.416Z" fill="#EF476F"/>
<path d="M370.944 304.234C373.521 318.919 376.36 333.648 381.958 347.446C381.818 347.58 381.677 347.703 381.536 347.825C381.041 348.247 380.527 348.645 379.988 349.049C378.734 349.93 377.357 350.676 376.317 351.827C375.923 352.267 375.612 352.775 375.399 353.326C375.207 353.756 375.107 354.222 375.107 354.693C375.107 355.165 375.207 355.631 375.399 356.061C372.48 357.352 369.09 356.954 365.817 356.832C362.996 356.728 360.261 356.832 357.997 358.38C354.852 360.546 353.903 364.707 353.396 368.488C353.208 369.867 353.047 371.248 352.912 372.631C352.782 373.916 352.676 375.205 352.594 376.498C352.317 380.776 352.278 385.066 352.478 389.348C352.51 390.131 352.553 390.914 352.606 391.697C342.608 391.459 333.497 386.245 324.875 381.179C322.905 380.022 320.874 378.805 319.595 376.896C318.417 375.021 317.918 372.798 318.181 370.599C318.181 370.287 318.236 369.988 318.279 369.669C318.553 367.854 319.023 366.073 319.681 364.358C322.378 357.055 326.354 350.29 331.423 344.38C333.613 341.822 336.079 339.32 337.101 336.107C337.548 334.706 337.713 333.219 338.166 331.824C340.197 325.779 347.528 322.921 350.036 317.053C350.648 315.652 350.93 314.116 351.688 312.77C352.371 311.651 353.253 310.666 354.289 309.863C354.736 309.49 355.201 309.129 355.66 308.768C359.959 305.399 364.102 301.84 368.087 298.091C368.829 297.393 369.564 296.688 370.29 295.974C370.193 298.743 370.412 301.515 370.944 304.234Z" fill="#EF476F"/>
<path d="M432.604 260.802C431.723 261.732 430.769 262.607 429.832 263.476L429.582 263.703L428.59 264.62C426.791 266.173 425.234 267.986 423.971 269.999L423.867 270.17C420.746 275.757 421.902 282.634 422.771 288.98C423.849 296.887 424.334 304.864 424.221 312.843C424.062 323.857 422.765 334.798 422.741 345.799C422.741 348.296 422.796 350.786 422.906 353.283C423.083 357.34 423.389 361.39 423.756 365.441C424.154 369.883 424.631 374.32 425.078 378.756C425.433 382.188 425.77 385.615 426.051 389.042C426.192 390.816 426.326 392.584 426.436 394.359C426.565 396.439 426.669 398.526 426.73 400.606C426.773 401.928 426.798 403.244 426.798 404.565C426.798 405.318 426.798 406.064 426.798 406.811C426.798 408.243 426.759 409.67 426.681 411.094C426.6 412.926 426.475 414.761 426.308 416.601C426.118 418.602 425.782 420.786 424.374 422.194C424.289 422.279 424.197 422.359 424.105 422.438L422.123 422.194C408.456 420.557 394.659 420.311 380.943 421.459C381.242 419.391 381.518 417.329 381.787 415.255C381.909 414.276 382.032 413.291 382.148 412.306C382.283 411.18 382.411 410.054 382.534 408.928C382.674 407.704 382.803 406.48 382.925 405.257C383.243 402.103 383.523 398.948 383.763 395.791C384.118 391.185 384.388 386.572 384.571 381.95C384.661 379.743 384.73 377.534 384.779 375.323C384.849 372.582 384.881 369.839 384.877 367.093C384.877 364.425 384.855 361.753 384.81 359.077C384.81 358.196 384.773 357.315 384.7 356.44C384.647 355.652 384.539 354.869 384.375 354.097C383.921 352.315 383.307 350.579 382.54 348.908C382.405 348.59 382.277 348.296 382.148 347.959C382.075 347.794 382.007 347.623 381.94 347.458C385.465 344.319 387.973 340.115 390.384 335.979C394.294 329.315 398.296 322.358 398.951 314.661C399.605 306.963 395.781 298.317 388.426 295.967C386.425 295.356 384.308 295.184 382.246 294.823C380.3 294.481 376.243 293.703 373.992 292.308C372.768 293.565 371.544 294.799 370.32 296.01C370.395 294.162 370.846 292.348 371.648 290.681L372.517 290.724C372.446 290.528 372.413 290.32 372.419 290.112C372.419 289.457 372.872 288.717 373.839 287.897C376.721 285.449 381.255 284.904 383.072 281.594C383.831 280.217 383.959 278.578 384.571 277.134C386.327 273.016 391.369 271.498 394.404 268.206C397.439 264.914 398.198 260.252 400.652 256.58C402.484 253.899 405.027 251.781 407.994 250.461C408.239 250.345 408.49 250.229 408.741 250.125C413.819 247.953 419.853 247.457 425.115 247.469C427.159 247.469 432.457 247.53 435.052 248.564C435.473 248.715 435.858 248.95 436.184 249.256C438.95 252.266 434.648 258.624 432.604 260.802Z" fill="#EF476F"/>
<path d="M371.856 290.252C376.583 288.829 381.545 288.36 386.455 288.872C391.365 289.383 396.124 290.865 400.456 293.232C404.861 295.68 408.814 299.094 411.237 303.5C414.878 310.108 414.719 318.075 414.462 325.619C414.333 329.395 414.168 333.305 412.504 336.695C410.576 340.617 406.942 343.309 403.234 345.512C400.911 346.994 398.366 348.095 395.695 348.773C391.583 349.667 387.312 348.908 383.17 348.161C378.666 347.329 373.833 346.326 370.706 342.973C368.87 341.027 367.867 338.5 366.875 336.028C365.452 332.458 364.024 328.893 362.592 325.332C360.114 319.146 359.276 314 362.549 307.973C364.036 305.225 365.854 302.655 367.322 299.89C368.056 298.482 370.687 290.613 371.856 290.252Z" fill="#EF476F"/>
<path d="M629.02 396.029V414.325C616.469 419.539 603.004 422.201 589.413 422.157H424.393C424.307 422.242 424.215 422.322 424.124 422.402L422.141 422.157H128.6C103.972 422.157 81.1485 415.512 62.4309 404.192V376.259L203.606 359.965H203.716L285.929 366.928L307.204 368.763L318.255 369.7L341.127 371.639L352.894 372.637L370.027 374.093L372.438 374.295L384.785 375.341L401.539 376.718L425.097 378.713L464.368 382.048L491.994 384.391L537.36 388.24L545.987 388.968L546.917 389.048L547.725 389.115L559.118 390.082L571.625 391.146L573.076 391.269L629.02 396.029Z" fill="#504F60"/>
<path d="M463.199 395.356L286.278 365.16L279.418 399.848L360.518 409.558L385.489 412.685L454.18 399.156L463.199 395.356Z" fill="#9C9CA1"/>
<path d="M371.618 410.947L460.256 394.285C460.699 394.201 461.156 394.215 461.593 394.327C462.03 394.44 462.437 394.648 462.785 394.936C463.132 395.224 463.412 395.586 463.603 395.995C463.794 396.404 463.892 396.851 463.89 397.302C463.892 398.018 463.643 398.712 463.185 399.264C462.728 399.815 462.092 400.188 461.388 400.319L374.824 416.528L371.618 410.947Z" fill="#9C9CA1"/>
<path d="M410.069 358.551C412.828 358.294 415.625 357.86 418.109 356.636C421.168 355.112 423.549 352.487 426.382 350.554C432.611 346.271 440.944 345.695 448.085 348.155C455.226 350.615 461.186 355.883 465.359 362.174C468.131 366.365 470.211 371.713 468.253 376.339C467.581 377.753 466.734 379.077 465.732 380.279L460.629 386.949C459.659 388.351 458.493 389.606 457.166 390.675C455.257 392.064 452.882 392.633 450.545 392.976C444.334 393.882 438.014 393.368 431.754 393.784C421.003 394.5 410.503 397.963 399.728 397.847C393.535 397.779 387.423 396.531 381.371 395.283L354.589 389.776C349.926 388.821 344.658 387.426 342.461 383.198C341.476 381.295 341.293 379.092 341.176 376.951C340.858 371.052 341.176 364.493 345.264 360.24C349.106 356.25 355.182 354.99 359.771 352.041C365.389 348.424 367.243 349.593 373.166 352.31C384.721 357.543 397.435 359.693 410.069 358.551Z" fill="#F9EFD9"/>
<path d="M517.62 350.162C510.106 353.069 502.549 355.987 494.68 357.719C481.488 360.625 467.684 360.167 454.596 363.489C447.681 365.251 440.81 368.091 433.706 367.515C430.53 367.258 427.465 366.292 424.375 365.557C407.015 361.274 387.282 362.663 373.184 373.677C368.362 377.44 364.416 382.133 360.836 387.139C360.07 388.22 359.552 389.457 359.32 390.761C359.088 392.065 359.146 393.405 359.492 394.684C359.837 395.963 360.461 397.15 361.319 398.16C362.176 399.17 363.246 399.978 364.452 400.527C369.935 403.048 375.808 404.614 381.818 405.159C389.852 405.868 397.923 404.73 405.914 403.592C417.772 401.91 429.637 400.221 441.465 398.33C445.711 397.651 449.958 396.947 454.229 396.409C484.964 392.523 516.256 397.247 547.07 394.004C550.185 393.674 553.354 393.245 556.187 391.917C563.359 388.552 566.908 379.68 565.427 371.884C563.946 364.089 558.231 357.609 551.353 353.632C545.589 350.285 539.373 348.932 532.954 347.513C526.994 346.124 523.36 347.959 517.62 350.162Z" fill="#FDF5E2"/>
<path opacity="0.1" d="M583.539 303.561C586.928 308.003 587.65 313.963 587.283 319.525C586.916 325.087 585.595 330.588 585.399 336.175C585.13 343.835 586.977 351.472 586.665 359.108C586.445 364.45 585.178 369.688 583.679 374.815C581.911 380.867 579.353 387.371 573.767 390.278C566.351 394.139 550.796 391.966 542.995 394.989C543.705 390.565 550.509 384.159 551.219 379.735C551.708 376.675 552.204 373.53 551.678 370.465C551.005 366.555 548.71 363.085 545.987 360.197C541.655 355.602 536.001 352.145 529.79 351.019C523.58 349.893 508.374 350.817 503.406 354.739C502.794 350.689 514.175 346.785 518.177 345.91C520.172 345.463 522.46 345.714 524.057 344.447C527.116 342.049 524.895 337.27 525.042 333.433C525.158 330.374 526.945 327.571 527.306 324.512C527.918 319.617 524.724 314.63 525.978 309.827C526.443 308.052 527.477 306.492 528.193 304.803C530.372 299.633 529.417 293.734 528.255 288.239C527.533 284.788 526.829 280.897 528.75 277.954C530.531 275.206 535.585 284.99 538.822 284.537C549.512 283.038 559.185 275.114 567.819 281.6C572.219 284.905 572.794 288.331 574.55 293.049C576.257 297.54 580.681 299.841 583.539 303.561Z" fill="black"/>
<path d="M585.374 303.561C588.764 308.003 589.486 313.963 589.119 319.525C588.752 325.087 587.43 330.588 587.234 336.175C586.965 343.835 588.813 351.472 588.501 359.108C588.281 364.45 587.014 369.688 585.515 374.815C583.747 380.867 581.189 387.371 575.602 390.278C568.186 394.139 552.632 391.966 544.831 394.989C545.54 390.565 552.345 384.159 553.054 379.735C553.544 376.675 554.04 373.53 553.513 370.465C552.84 366.555 550.546 363.085 547.823 360.197C543.491 355.602 537.837 352.145 531.626 351.019C525.415 349.893 510.21 350.817 505.242 354.739C504.63 350.689 516.011 346.785 520.012 345.91C522.007 345.463 524.296 345.714 525.893 344.447C528.952 342.049 526.731 337.27 526.878 333.433C526.994 330.374 528.781 327.571 529.142 324.512C529.754 319.617 526.56 314.63 527.814 309.827C528.279 308.052 529.313 306.492 530.029 304.803C532.207 299.633 531.253 293.734 530.09 288.239C529.368 284.788 528.665 280.897 530.586 277.953C532.366 275.206 535.848 274.166 539.085 273.707C549.923 272.241 560.904 275.074 569.679 281.6C574.079 284.904 574.654 288.331 576.41 293.049C578.093 297.54 582.517 299.841 585.374 303.561Z" fill="#EF476F"/>
<path d="M180.507 274.57L213.775 397.522C214.183 399.029 215.041 400.375 216.233 401.382C217.426 402.389 218.897 403.008 220.451 403.158L370.192 417.543C371.412 417.661 372.643 417.485 373.781 417.029C374.919 416.573 375.932 415.851 376.733 414.923C377.535 413.996 378.103 412.89 378.389 411.697C378.676 410.505 378.672 409.262 378.379 408.071L341.947 259.762C341.514 257.999 340.469 256.447 338.999 255.382C337.529 254.316 335.729 253.807 333.919 253.943L187.317 264.908C186.191 264.995 185.099 265.33 184.118 265.888C183.136 266.447 182.29 267.215 181.64 268.137C180.989 269.06 180.55 270.115 180.355 271.227C180.159 272.339 180.211 273.48 180.507 274.57Z" fill="#9C9CA1"/>
<path d="M477.339 298.562C486.43 298.562 493.799 291.097 493.799 281.888C493.799 272.679 486.43 265.214 477.339 265.214C468.249 265.214 460.88 272.679 460.88 281.888C460.88 291.097 468.249 298.562 477.339 298.562Z" fill="white"/>
<path d="M490.856 251.471C490.856 251.471 494.326 261.787 484.089 266.126L482.779 268.414L489.192 274.741C489.192 274.741 497.097 260.319 496.241 255.197C496.241 255.197 495.017 249.996 490.856 251.471Z" fill="white"/>
<path d="M479.23 298.562C487.996 298.562 495.103 291.455 495.103 282.689C495.103 273.923 487.996 266.817 479.23 266.817C470.464 266.817 463.358 273.923 463.358 282.689C463.358 291.455 470.464 298.562 479.23 298.562Z" fill="#118AB2"/>
<path d="M496.32 257.541L493.799 253.38L490.128 252.86C490.911 239.16 487.356 235.079 487.356 235.079L486.53 234.999L482.932 234.65L476.165 227.626V225.631C485.673 226.763 490.929 231.279 493.769 236.572C498.786 245.86 496.32 257.541 496.32 257.541Z" fill="#118AB2"/>
<path opacity="0.1" d="M486.561 232.478V234.999L482.963 234.65L476.195 227.626C476.195 227.626 486.665 229.969 486.561 232.478Z" fill="black" stroke="#4C4981" stroke-miterlimit="10"/>
<path opacity="0.1" d="M496.32 257.541L493.799 253.38V236.596C498.786 245.86 496.32 257.541 496.32 257.541Z" fill="black" stroke="#4C4981" stroke-miterlimit="10"/>
<path d="M449.9 289.214C454.124 286.776 453.942 278.555 449.495 270.852C445.047 263.149 438.019 258.882 433.796 261.32C429.572 263.758 429.754 271.979 434.201 279.682C438.649 287.385 445.677 291.652 449.9 289.214Z" fill="white"/>
<path d="M444.23 273.921C448.679 281.625 454.137 286.771 449.915 289.218C445.693 291.666 433.394 290.442 428.945 282.732C424.497 275.023 428.535 264.376 432.758 261.928C436.98 259.481 439.776 266.199 444.23 273.921Z" fill="#118AB2"/>
<path opacity="0.1" d="M483.838 218.423C483.838 243.039 466.993 266.762 442.376 266.762C430.554 266.762 419.216 262.065 410.856 253.706C402.497 245.346 397.8 234.008 397.8 222.186C397.8 210.364 402.497 199.025 410.856 190.666C419.216 182.306 430.554 177.61 442.376 177.61C466.993 177.634 483.838 193.8 483.838 218.423Z" fill="black"/>
<path d="M442.376 265.563C466.995 265.563 486.952 245.605 486.952 220.987C486.952 196.368 466.995 176.411 442.376 176.411C417.758 176.411 397.8 196.368 397.8 220.987C397.8 245.605 417.758 265.563 442.376 265.563Z" fill="#FDF5E2"/>
<path d="M438.46 201.235C443.765 203.187 446.904 208.669 451.665 211.723C458.395 216.006 467.158 214.898 474.843 212.781C479.126 211.613 483.605 210.187 487.821 211.484C488.441 211.759 489.125 211.856 489.798 211.766C490.715 211.502 491.168 210.487 491.468 209.581C496.681 194.039 494.338 176.435 486.469 162.056C484.437 158.348 482.002 154.762 478.649 152.186C476.006 150.161 472.897 148.833 469.764 147.701C464.039 145.645 458.117 144.183 452.093 143.338C451.029 143.145 449.943 143.11 448.868 143.234C447.394 143.473 446.072 144.268 444.757 144.978C439.122 147.998 432.874 149.695 426.486 149.94C417.919 150.265 408.129 148.245 401.527 153.74C393.572 160.33 395.555 173.186 390.396 182.132C386.982 188.049 380.398 192.344 379.315 199.081C379.033 201.14 379.164 203.235 379.701 205.243C382.222 215.608 392.257 223.636 402.952 223.826C404.595 223.951 406.24 223.614 407.701 222.853C408.658 222.2 409.503 221.396 410.203 220.473C417.209 212.175 425.225 196.364 438.46 201.235Z" fill="#444053"/>
<path opacity="0.1" d="M491.468 205.072C491.168 205.977 490.715 206.993 489.798 207.256C489.125 207.346 488.441 207.249 487.821 206.974C483.605 205.677 479.102 207.103 474.849 208.272C467.158 210.389 458.377 211.521 451.671 207.213C446.904 204.154 443.771 198.647 438.46 196.725C425.225 191.83 417.209 207.666 410.185 215.963C409.485 216.886 408.639 217.69 407.682 218.343C406.221 219.105 404.577 219.442 402.934 219.316C392.275 219.127 382.234 211.099 379.682 200.733C379.542 200.121 379.419 199.509 379.327 198.898C379.327 198.953 379.327 199.002 379.297 199.057C379.015 201.116 379.146 203.21 379.682 205.218C382.203 215.584 392.244 223.612 402.934 223.801C404.577 223.927 406.221 223.59 407.682 222.828C408.639 222.175 409.485 221.371 410.185 220.448C417.209 212.151 425.225 196.34 438.46 201.21C443.771 203.162 446.904 208.645 451.671 211.698C458.402 215.981 467.158 214.874 474.849 212.757C479.132 211.588 483.605 210.162 487.821 211.46C488.441 211.734 489.125 211.832 489.798 211.741C490.715 211.478 491.168 210.462 491.468 209.557C493.571 203.197 494.5 196.509 494.209 189.817C494.029 195.007 493.106 200.144 491.468 205.072Z" fill="black"/>
<circle cx="273.514" cy="334.706" r="6.11887" fill="white"/>
<circle cx="140" cy="428" r="50" fill="#06D6A0"/>
<path d="M140 423C141.326 423 142.598 423.527 143.536 424.464C144.473 425.402 145 426.674 145 428C145 429.25 144.55 430.35 143.825 431.225L151.75 453H146.425L140 435.325L133.575 453H128.25L136.175 431.225C135.45 430.35 135 429.25 135 428C135 426.674 135.527 425.402 136.464 424.464C137.402 423.527 138.674 423 140 423ZM140 418C137.348 418 134.804 419.054 132.929 420.929C131.054 422.804 130 425.348 130 428C130 429.25 130.25 430.5 130.7 431.65L128.5 437.65C126.325 435.025 125 431.675 125 428C125 424.022 126.58 420.206 129.393 417.393C132.206 414.58 136.022 413 140 413C143.978 413 147.794 414.58 150.607 417.393C153.42 420.206 155 424.022 155 428C155 431.675 153.675 435.025 151.5 437.65L149.3 431.65C149.75 430.5 150 429.25 150 428C150 425.348 148.946 422.804 147.071 420.929C145.196 419.054 142.652 418 140 418ZM140 408C134.696 408 129.609 410.107 125.858 413.858C122.107 417.609 120 422.696 120 428C120 433.9 122.5 439.25 126.6 442.85L124.8 447.85C118.85 443.275 115 436.075 115 428C115 421.37 117.634 415.011 122.322 410.322C127.011 405.634 133.37 403 140 403C143.283 403 146.534 403.647 149.567 404.903C152.6 406.159 155.356 408.001 157.678 410.322C159.999 412.644 161.841 415.4 163.097 418.433C164.353 421.466 165 424.717 165 428C165 436.075 161.15 443.275 155.2 447.85L153.4 442.85C157.5 439.25 160 433.9 160 428C160 422.696 157.893 417.609 154.142 413.858C150.391 410.107 145.304 408 140 408Z" fill="white"/>
<circle cx="700" cy="329" r="50" fill="#FFD166"/>
<circle cx="254" cy="50" r="50" fill="#EF476F"/>
<path d="M264.9 55C265.1 53.35 265.25 51.7 265.25 50C265.25 48.3 265.1 46.65 264.9 45H273.35C273.75 46.6 274 48.275 274 50C274 51.725 273.75 53.4 273.35 55H264.9ZM260.475 68.9C261.975 66.125 263.125 63.125 263.925 60H271.3C268.9 64.125 265.075 67.325 260.475 68.9ZM259.85 55H248.15C247.9 53.35 247.75 51.7 247.75 50C247.75 48.3 247.9 46.625 248.15 45H259.85C260.075 46.625 260.25 48.3 260.25 50C260.25 51.7 260.075 53.35 259.85 55ZM254 69.9C251.925 66.9 250.25 63.575 249.225 60H258.775C257.75 63.575 256.075 66.9 254 69.9ZM244 40H236.7C239.075 35.85 242.925 32.65 247.5 31.1C246 33.875 244.875 36.875 244 40ZM236.7 60H244C244.875 63.125 246 66.125 247.5 68.9C242.925 67.325 239.075 64.125 236.7 60ZM234.65 55C234.25 53.4 234 51.725 234 50C234 48.275 234.25 46.6 234.65 45H243.1C242.9 46.65 242.75 48.3 242.75 50C242.75 51.7 242.9 53.35 243.1 55H234.65ZM254 30.075C256.075 33.075 257.75 36.425 258.775 40H249.225C250.25 36.425 251.925 33.075 254 30.075ZM271.3 40H263.925C263.125 36.875 261.975 33.875 260.475 31.1C265.075 32.675 268.9 35.85 271.3 40ZM254 25C240.175 25 229 36.25 229 50C229 56.6304 231.634 62.9893 236.322 67.6777C238.644 69.9991 241.4 71.8406 244.433 73.097C247.466 74.3534 250.717 75 254 75C260.63 75 266.989 72.3661 271.678 67.6777C276.366 62.9893 279 56.6304 279 50C279 46.717 278.353 43.4661 277.097 40.4329C275.841 37.3998 273.999 34.6438 271.678 32.3223C269.356 30.0009 266.6 28.1594 263.567 26.903C260.534 25.6466 257.283 25 254 25Z" fill="white"/>
<path d="M711.525 336.046C710.375 336.046 709.425 335.121 709.425 333.971C709.425 332.821 710.375 331.921 711.525 331.921C712.675 331.921 713.625 332.821 713.625 333.971C713.625 335.121 712.675 336.046 711.525 336.046ZM688.525 336.046C687.375 336.046 686.425 335.121 686.425 333.971C686.425 332.821 687.375 331.921 688.525 331.921C689.675 331.921 690.6 332.821 690.6 333.971C690.6 335.121 689.675 336.046 688.525 336.046ZM712.275 323.521L716.45 316.321C716.675 315.896 716.525 315.371 716.125 315.146C715.7 314.896 715.175 315.046 715 315.471L710.725 322.746C707.375 321.221 703.75 320.421 700 320.446C696.175 320.446 692.5 321.271 689.325 322.721L685.1 315.446C684.875 315.021 684.35 314.871 683.925 315.121C683.5 315.346 683.375 315.871 683.6 316.296L687.75 323.496C680.625 327.396 675.725 334.621 675 343.171H725C724.3 334.646 719.425 327.421 712.275 323.521Z" fill="white"/>
</svg>
