<svg width="800" height="542" viewBox="0 0 800 542" fill="none" xmlns="http://www.w3.org/2000/svg">
<path opacity="0.1" d="M799.999 386.845C800.009 398.572 798.397 410.245 795.209 421.53C792.128 432.41 787.596 442.826 781.734 452.495C781.734 487.53 758.083 517.81 723.755 532.216C709.41 538.175 694.022 541.218 678.489 541.167H151.867C123.72 541.167 97.6366 533.572 76.245 520.635C70.1229 516.95 64.3153 512.765 58.8814 508.125C35.1052 487.691 20.3639 459.453 20.3639 428.265C7.02 407.717 -0.0555772 383.73 0.00032875 359.23C0.00032875 307.929 30.343 263.817 73.8114 244.342C79.5836 241.757 85.5479 239.625 91.6506 237.964C93.8091 237.377 95.9909 236.85 98.196 236.384C104.074 235.132 110.037 234.314 116.035 233.936C118.203 233.801 120.382 233.724 122.574 233.705H123.776C126.196 233.705 128.595 233.789 130.979 233.929L131.762 232.601C132.723 230.997 133.706 229.409 134.713 227.838C136.532 224.976 138.438 222.155 140.434 219.377C142.522 216.444 144.702 213.559 146.972 210.719L147.553 210.02C148.839 208.416 150.154 206.831 151.497 205.265C155.692 200.375 160.121 195.631 164.783 191.034C215.21 141.608 294.21 109.79 383.021 109.79C452.126 109.79 515.293 129.055 563.678 160.887C582.008 150.514 602.714 145.072 623.776 145.09C692.125 145.09 747.552 201.293 747.552 270.622C747.542 275.008 747.308 279.391 746.853 283.754C763.328 295.417 776.758 310.872 786.007 328.814C795.257 346.756 800.056 366.659 799.999 386.845Z" fill="#118AB2"/>
<path d="M449.627 114.655C474.344 114.655 494.382 94.6178 494.382 69.9002C494.382 45.1826 474.344 25.145 449.627 25.145C424.909 25.145 404.872 45.1826 404.872 69.9002C404.872 94.6178 424.909 114.655 449.627 114.655Z" fill="#FFD166"/>
<path d="M314.869 285.295C314.869 371.735 263.481 401.917 200.092 401.917C136.702 401.917 85.3146 371.735 85.3146 285.295C85.3146 198.854 200.092 88.8882 200.092 88.8882C200.092 88.8882 314.869 198.854 314.869 285.295Z" fill="#06D6A0"/>
<path d="M195.911 388.694L197.086 316.352L246.007 226.853L197.27 305.003L197.798 272.475L231.515 207.723L197.938 263.866L198.889 205.363L234.993 153.813L199.038 196.164L199.632 88.8882L195.901 230.901L196.207 225.043L159.5 168.856L195.619 236.289L192.198 301.627L192.096 299.893L149.78 240.765L191.968 306.019L191.54 314.191L191.464 314.314L191.499 314.984L182.822 480.754H194.415L195.806 395.131L237.891 330.036L195.911 388.694Z" fill="#3F3D56"/>
<path d="M654.997 239.945C654.997 345.547 592.218 382.42 514.777 382.42C437.335 382.42 374.556 345.547 374.556 239.945C374.556 134.343 514.777 0 514.777 0C514.777 0 654.997 134.343 654.997 239.945Z" fill="#06D6A0"/>
<path d="M509.669 366.266L511.104 277.886L570.87 168.548L511.33 264.022L511.976 224.283L553.166 145.178L512.146 213.767L513.307 142.294L557.415 79.3167L513.49 131.055L514.216 0L509.656 173.494L510.031 166.336L465.187 97.695L509.312 180.075L505.133 259.898L505.009 257.779L453.311 185.545L504.853 265.264L504.33 275.247L504.237 275.397L504.279 276.216L493.678 478.733H507.841L509.542 374.129L560.955 294.605L509.669 366.266Z" fill="#3F3D56"/>
<path d="M365.012 486.683C483.965 486.683 580.396 483.239 580.396 478.991C580.396 474.742 483.965 471.298 365.012 471.298C246.058 471.298 149.627 474.742 149.627 478.991C149.627 483.239 246.058 486.683 365.012 486.683Z" fill="#3F3D56"/>
<path d="M667.808 541.229C722.651 541.229 767.109 537.002 767.109 531.788C767.109 526.574 722.651 522.348 667.808 522.348C612.966 522.348 568.508 526.574 568.508 531.788C568.508 537.002 612.966 541.229 667.808 541.229Z" fill="#3F3D56"/>
<path d="M377.599 242.627H352.424V478.991H377.599V242.627Z" fill="#2F2E41"/>
<path d="M480.396 296.474H325.851V253.117H480.396L525.151 274.795L480.396 296.474Z" fill="#3F3D56"/>
<path opacity="0.1" d="M480.396 292.977H325.851V296.473H480.396L525.151 274.795L521.542 273.047L480.396 292.977Z" fill="black"/>
<path d="M250.326 353.817H404.872V310.46H250.326L205.571 332.139L250.326 353.817Z" fill="#3F3D56"/>
<path opacity="0.1" d="M209.18 330.39L205.571 332.138L250.326 353.817H404.872V350.32H250.326L209.18 330.39Z" fill="black"/>
<path d="M439.137 261.508H412.564V288.082H439.137V261.508Z" fill="#EF476F"/>
<path d="M305.571 345.425C312.909 345.425 318.858 339.476 318.858 332.138C318.858 324.8 312.909 318.852 305.571 318.852C298.233 318.852 292.284 324.8 292.284 332.138C292.284 339.476 298.233 345.425 305.571 345.425Z" fill="#EF476F"/>
<path d="M365.012 281.089C369.26 281.089 372.704 277.645 372.704 273.397C372.704 269.149 369.26 265.705 365.012 265.705C360.763 265.705 357.319 269.149 357.319 273.397C357.319 277.645 360.763 281.089 365.012 281.089Z" fill="#2F2E41"/>
<path d="M365.012 338.431C369.26 338.431 372.704 334.988 372.704 330.739C372.704 326.491 369.26 323.047 365.012 323.047C360.763 323.047 357.319 326.491 357.319 330.739C357.319 334.988 360.763 338.431 365.012 338.431Z" fill="#2F2E41"/>
<path d="M313.263 452.653C313.263 468.365 303.923 473.852 292.4 473.852C292.134 473.852 291.867 473.849 291.601 473.843C291.067 473.831 290.538 473.806 290.016 473.77C279.617 473.034 271.538 467.266 271.538 452.653C271.538 437.531 290.862 418.449 292.314 417.037L292.317 417.034C292.372 416.979 292.4 416.953 292.4 416.953C292.4 416.953 313.263 436.941 313.263 452.653Z" fill="#06D6A0"/>
<path d="M291.64 471.448L299.271 460.786L291.621 472.619L291.601 473.843C291.067 473.831 290.538 473.806 290.016 473.77L290.838 458.05L290.832 457.928L290.846 457.906L290.923 456.421L283.255 444.559L290.948 455.307L290.965 455.623L291.587 443.745L285.022 431.488L291.667 441.661L292.314 417.037L292.317 416.953V417.034L292.209 436.452L298.745 428.754L292.182 438.124L292.009 448.759L298.112 438.553L291.984 450.323L291.887 456.235L300.747 442.031L291.854 458.298L291.64 471.448Z" fill="#3F3D56"/>
<path d="M635.669 514.595C635.669 514.595 625.767 522.933 620.556 522.412C615.345 521.891 605.443 521.891 609.612 527.623C613.781 533.356 630.979 536.483 638.274 537.004C645.57 537.525 661.725 538.046 660.683 534.919C659.641 531.792 658.598 517.201 654.429 516.159C650.26 515.116 635.669 514.595 635.669 514.595Z" fill="white"/>
<path d="M692.497 506.408C692.497 506.408 685.201 517.101 680.042 517.999C674.882 518.898 665.345 521.559 670.901 525.96C676.457 530.361 693.862 528.751 701.03 527.292C708.197 525.833 723.898 521.994 722.053 519.262C720.209 516.53 715.284 502.756 710.988 502.872C706.692 502.989 692.497 506.408 692.497 506.408Z" fill="white"/>
<path d="M629.869 353.493C629.869 353.493 623.162 399.426 624.725 407.764C626.288 416.102 627.331 429.13 627.331 429.13C627.331 429.13 626.288 440.074 627.331 445.285C628.373 450.497 634.626 500.004 634.626 501.046C634.626 502.088 633.584 505.215 634.626 507.821C635.669 510.426 637.753 508.342 634.626 512.511C631.5 516.68 633.584 517.722 634.105 517.722C634.626 517.722 654.95 519.807 655.993 517.722C657.035 515.638 655.472 515.116 655.993 512.511C656.514 509.905 657.035 509.384 658.077 508.863C659.119 508.342 661.204 509.384 659.641 506.778C658.077 504.173 654.429 501.046 655.472 499.483C656.514 497.919 654.95 486.454 654.95 486.454C654.95 486.454 653.908 460.919 653.387 445.285C652.866 429.651 658.077 413.496 658.077 413.496C658.726 426.288 663.477 438.531 671.627 448.412C685.176 464.567 691.95 494.792 691.95 494.792C691.95 494.792 695.077 499.483 693.514 503.652C691.95 507.821 687.26 505.215 691.95 507.821C696.641 510.426 712.796 506.778 714.359 505.215C715.922 503.652 712.274 501.567 713.317 497.398C714.359 493.229 718.528 494.271 714.88 492.187C711.232 490.102 710.19 490.623 710.19 488.539C710.19 486.454 700.81 441.116 686.218 428.088L685.176 380.665C685.176 380.665 698.204 347.313 684.655 344.186C671.105 341.06 629.869 353.493 629.869 353.493Z" fill="#2F2E41"/>
<path d="M639.317 230.059C639.317 230.059 648.176 251.947 646.091 255.073C644.007 258.2 671.627 244.651 671.627 244.651C671.627 244.651 662.767 222.763 662.767 220.158C662.767 217.552 639.317 230.059 639.317 230.059Z" fill="#FDF5E2"/>
<path d="M645.831 235.532C656.48 235.532 665.112 226.899 665.112 216.25C665.112 205.601 656.48 196.968 645.831 196.968C635.182 196.968 626.549 205.601 626.549 216.25C626.549 226.899 635.182 235.532 645.831 235.532Z" fill="#FDF5E2"/>
<path d="M671.626 235.792C671.626 235.792 658.077 234.229 651.302 242.567C644.528 250.905 643.486 252.989 643.486 252.989C643.486 252.989 627.331 279.046 630.457 292.074C631.219 293.25 631.915 294.468 632.542 295.722C633.584 297.806 633.584 326.99 632.542 331.68C631.5 336.37 630.457 337.933 631.5 344.708C632.542 351.482 623.161 362.426 634.105 364.511C645.049 366.595 653.387 365.032 657.035 360.342C660.683 355.652 657.556 352.525 669.021 352.525C680.486 352.525 687.781 344.708 687.781 344.708C687.781 344.708 682.049 338.454 684.133 337.412C686.218 336.37 684.133 333.764 683.091 331.159C682.049 328.553 682.049 326.468 683.612 326.468C685.176 326.468 684.133 325.426 683.091 322.82C682.049 320.215 701.331 275.398 689.866 262.37C678.401 249.341 672.669 242.046 672.669 242.046C672.669 242.046 674.753 234.229 671.626 235.792Z" fill="#EF476F"/>
<path d="M641.922 285.299V308.229L625.246 363.468C625.246 363.468 614.302 392.13 625.246 392.13C636.19 392.13 635.603 364.774 635.603 364.774L659.119 323.342C659.119 323.342 668.5 290.511 667.457 287.905C666.415 285.299 641.922 285.299 641.922 285.299Z" fill="#FDF5E2"/>
<path d="M650.781 251.426C650.781 251.426 635.148 257.68 639.317 274.356C643.486 291.032 639.317 290.511 639.317 290.511C639.317 290.511 660.683 288.426 667.457 293.116L669.021 286.863C669.021 286.863 675.274 250.905 650.781 251.426Z" fill="#EF476F"/>
<path d="M639.247 201.774C638.043 202.201 636.753 202.322 635.491 202.126C634.23 201.929 633.037 201.422 632.02 200.65C630.056 199.031 629.223 196.045 630.378 193.777C631.376 191.819 633.51 190.745 635.557 189.943C640.071 188.177 644.827 187.104 649.662 186.758C651.968 186.594 654.389 186.62 656.446 187.674C657.464 188.195 658.348 188.947 659.356 189.486C661.21 190.479 663.367 190.7 665.37 191.338C667.42 192.007 669.302 193.108 670.889 194.567C672.476 196.026 673.731 197.809 674.57 199.795C675.114 201.143 675.495 202.553 675.703 203.992C676.302 207.934 675.883 211.963 674.487 215.697C672.265 221.612 667.606 226.782 667.343 233.095C664.492 231.026 663.434 227.292 661.149 224.61C659.449 222.628 657.127 221.281 654.562 220.79C653.852 220.746 653.17 220.498 652.599 220.074C652.201 219.598 651.952 219.017 651.882 218.401L649.931 209.188C649.533 207.313 649.032 205.269 647.491 204.13C646.531 203.516 645.443 203.133 644.31 203.009C641.62 202.539 638.895 202.291 636.163 202.267" fill="#2F2E41"/>
</svg>
